<?xml version="1.0" encoding="UTF-8" standalone="no"?>
<svg
   xmlns:dc="http://purl.org/dc/elements/1.1/"
   xmlns:cc="http://creativecommons.org/ns#"
   xmlns:rdf="http://www.w3.org/1999/02/22-rdf-syntax-ns#"
   xmlns:svg="http://www.w3.org/2000/svg"
   xmlns="http://www.w3.org/2000/svg"
   xmlns:sodipodi="http://sodipodi.sourceforge.net/DTD/sodipodi-0.dtd"
   xmlns:inkscape="http://www.inkscape.org/namespaces/inkscape"
   version="1.1"
   x="0px"
   y="0px"
   viewBox="0 0 87.919182 87.49868"
   enable-background="new 0 0 100 100"
   xml:space="preserve"
   id="svg8"
   sodipodi:docname="Apis.svg"
   width="87.919182"
   height="87.49868"
   inkscape:version="0.92.2 (5c3e80d, 2017-08-06)"><metadata
     id="metadata14"><rdf:RDF><cc:Work
         rdf:about=""><dc:format>image/svg+xml</dc:format><dc:type
           rdf:resource="http://purl.org/dc/dcmitype/StillImage" /><dc:title></dc:title></cc:Work></rdf:RDF></metadata><defs
     id="defs12" /><sodipodi:namedview
     pagecolor="#ffffff"
     bordercolor="#666666"
     borderopacity="1"
     objecttolerance="10"
     gridtolerance="10"
     guidetolerance="10"
     inkscape:pageopacity="0"
     inkscape:pageshadow="2"
     inkscape:window-width="1280"
     inkscape:window-height="739"
     id="namedview10"
     showgrid="false"
     inkscape:zoom="1.888"
     inkscape:cx="43.460135"
     inkscape:cy="31.75"
     inkscape:window-x="0"
     inkscape:window-y="0"
     inkscape:window-maximized="1"
     inkscape:current-layer="svg8" /><path
     d="m 21.273135,51.141684 -8.631,-4.897 c -0.621,-0.352 -1.383,-0.347 -2,0.015 l -8.5579997,5.025 c -0.616,0.362 -0.992,1.025 -0.987,1.739 l 0.074,9.924 c 0.006,0.715 0.392,1.372 1.013,1.725 l 8.5439997,4.848 v 14.583 c 0,0.553 0.447,1 1,1 0.553,0 1,-0.447 1,-1 v -14.513 c 0.028,-0.015 0.059,-0.02 0.087,-0.036 l 8.557,-5.025 c 0.616,-0.362 0.992,-1.024 0.987,-1.739 l -0.073,-9.924 c -0.006,-0.716 -0.392,-1.373 -1.013,-1.725 z m -9.601,-0.849 5.633,3.197 -5.651,3.263 -5.5379997,-3.197 z m -6.5579997,4.993 5.5399997,3.199 v 6.395 l -5.4919997,-3.117 z m 7.5399997,9.723 v -6.525 l 5.648,-3.261 0.047,6.442 z m 75.193,-50.928 c -0.005,-0.715 -0.392,-1.372 -1.013,-1.725 l -8.631,-4.8970004 c -0.621,-0.352 -1.383,-0.347 -2,0.015 l -8.292,4.8700004 -7.525,-4.2690004 c 0.036,-0.255 0.062,-0.514 0.062,-0.78 0,-0.773 -0.162,-1.508 -0.451,-2.176 l 5.634,-3.252 c 0.479,-0.276 0.643,-0.88800002 0.366,-1.36600002 -0.277,-0.479 -0.891,-0.643 -1.366,-0.366 l -5.752,3.32000002 c -0.999,-1.023 -2.391,-1.66 -3.93,-1.66 -3.032,0 -5.5,2.468 -5.5,5.5 0,0.515 0.076,1.011 0.209,1.484 l -6.454,3.7260004 -0.014,-1.856 c -0.005,-0.7150004 -0.392,-1.3720004 -1.013,-1.7250004 l -12.024,-6.823 c -0.621,-0.353 -1.383,-0.347 -2,0.015 l -11.92,7.001 c -0.616,0.362 -0.992,1.0250004 -0.987,1.7390004 l 0.013,1.719 L 1.4931353,4.7646836 c -0.479,-0.271 -1.08999998,-0.104 -1.36299998,0.377 -0.272,0.48 -0.104,1.091 0.377,1.363 l 14.76899968,8.3800004 0.073,9.795 c 0.005,0.715 0.392,1.372 1.013,1.725 l 12.023,6.823 c 0.307,0.174 0.646,0.261 0.987,0.261 0.351,0 0.7,-0.092 1.013,-0.275 l 11.92,-7.001 c 0.616,-0.362 0.992,-1.025 0.987,-1.739 l -0.072,-9.667 7.325,-4.229 c 1.004,1.343 2.601,2.218 4.403,2.218 2.048,0 3.835,-1.127 4.781,-2.792 l 6.964,3.952 c -0.013,0.095 -0.037,0.188 -0.036,0.286 l 0.074,9.924 c 0.006,0.715 0.392,1.372 1.013,1.725 l 8.631,4.897 c 0.307,0.174 0.646,0.261 0.987,0.261 0.351,0 0.7,-0.092 1.013,-0.275 l 8.557,-5.025 c 0.616,-0.362 0.992,-1.024 0.987,-1.739 z m -58.663,-7.9320004 9.04,5.1300004 -9.056,5.229 -8.887,-5.13 z m -9.921,6.9520004 8.903,5.14 v 10.263 l -8.826,-5.009 z m 10.903,15.6 v -10.46 l 9.041,-5.22 0.076,10.325 z m 24.782,-17.908 c -1.061,0 -2.002,-0.485 -2.645,-1.2330004 l 0.775,-0.448 c 0.479,-0.276 0.643,-0.888 0.366,-1.366 -0.276,-0.479 -0.89,-0.644 -1.366,-0.366 l -0.588,0.339 c -0.017,-0.141 -0.043,-0.28 -0.043,-0.425 0,-1.93 1.57,-3.5 3.5,-3.5 1.813,0 3.292,1.392 3.466,3.161 l -0.168,-0.095 c -0.479,-0.271 -1.09,-0.104 -1.363,0.377 -0.272,0.48 -0.104,1.091 0.377,1.363 l 0.721,0.409 c -0.602,1.0590004 -1.728,1.7840004 -3.032,1.7840004 z m 22.285,0.715 5.632,3.196 -5.65,3.262 -5.537,-3.197 z m -6.557,4.992 5.54,3.199 v 6.395 l -5.492,-3.117 z m 7.54,9.724 v -6.525 l 5.648,-3.261 0.047,6.442 z m -1.781,34.477 c -0.421,-0.569 -0.971,-0.98 -1.646,-1.161 -0.089,-0.231 -6.854,-7.374 -8.389,-8.437 -2.146,-1.489 -21.089,-5.709 -22.007,-5.736 -1.583,-0.082 -3.039,0.7 -3.91,1.999 -0.97,1.445 -1.092,3.332 -0.328,5.048 0.179,0.402 0.43,0.76 0.729,1.088 l -3.265,-0.58 c -0.271,-0.048 -0.547,-0.021 -0.803,0.077 l -7.387,2.852 c -0.499,0.192 -0.857,0.636 -0.941,1.164 -0.084,0.527 0.119,1.061 0.533,1.398 l 6.346,5.173 c 0.171,0.139 2.592,0.796 2.592,0.796 0.885,4.765 2.425,10.537 2.457,10.611 1.188,2.745 5.349,8.509 7.723,11.699 0.393,0.528 0.995,0.807 1.606,0.807 0.415,0 0.833,-0.129 1.191,-0.396 0.887,-0.659 1.07,-1.912 0.411,-2.798 -3.807,-5.118 -6.521,-9.192 -7.232,-10.832 -0.398,-1.148 -2.202,-9.197 -2.712,-12.58 0.928,-0.047 1.719,0.16 2.373,0.618 1.758,1.229 2.372,4.14 2.459,5.15 0.046,0.564 0.328,1.083 0.777,1.428 0.947,0.727 3.694,3.064 5.016,5.138 1.682,2.635 5.456,2.798 7.553,2.665 0.631,-0.041 1.206,-0.378 1.55,-0.909 1.765,-2.725 1.746,-5.424 1.679,-6.186 0,0 9.832,1.708 10.04,1.708 0.929,0 1.865,-0.473 2.644,-1.353 0.26,-0.294 0.491,-0.641 0.706,-1.009 0.62,0.996 1.105,1.799 1.185,1.943 0.347,0.708 1.058,1.119 1.797,1.119 0.296,0 0.596,-0.065 0.879,-0.205 0.992,-0.486 1.401,-1.685 0.914,-2.677 -0.101,-0.206 -0.603,-1.041 -1.217,-2.031 1.126,0.572 2.093,1.225 2.29,1.869 0.516,1.686 0.798,8.068 0.378,15.834 -0.06,1.104 0.786,2.046 1.889,2.105 0.037,0.002 0.073,0.003 0.11,0.003 1.055,0 1.938,-0.826 1.995,-1.892 0.342,-6.316 0.121,-15.267 -0.742,-18.087 -0.965,-3.157 -9.037,-5.41 -9.243,-5.423 z m -19.092,-4.967 c -1.545,-1.301 -4.313,-1.981 -7.242,-2.703 -2.024,-0.498 -5.794,-1.426 -6.291,-2.245 -0.236,-0.531 -0.12,-1.495 0.375,-1.427 10e-4,0 0.002,0 0.003,0 1.928,0.219 18.286,4.154 19.934,5.03 0.6,0.416 2.307,2.037 4.233,3.989 l -10.451,-1.856 c -0.119,-0.294 -0.301,-0.569 -0.561,-0.788 z m -24.423,1.985 3.525,-1.361 c -0.207,0.435 -0.39,0.906 -0.52,1.423 -0.191,0.759 -0.257,1.512 -0.218,2.21 z m 13.171,0.529 c -1.987,-1.4 -4.428,-1.727 -7.253,-0.962 -0.561,0.15 -1.074,0.585 -1.327,1.108 -0.212,0.439 -0.2,1.451 -0.052,2.768 l -0.454,-0.113 c 0,0 -0.686,-1.237 -0.111,-3.023 0.261,-0.813 0.536,-1.509 0.902,-2.026 l 33.509,5.95 c -0.397,0.649 -0.727,1.416 -0.933,2.297 -0.226,0.968 -0.27,1.934 -0.146,2.796 l -20.604,-3.581 c -0.547,-1.73 -1.573,-3.835 -3.531,-5.214 z m 12.482,9.877 c 0.347,0.789 0.793,2.952 -0.258,3.794 -1.431,-0.038 -2.606,-0.362 -2.913,-0.843 -0.99,-1.553 -2.446,-3.064 -3.673,-4.205 l 6.822,1.185 c 0.009,0.023 0.012,0.046 0.022,0.069 z m 15.628,-2.985 c -0.357,1.533 -1.122,2.304 -1.372,2.354 l -0.465,-0.081 c -0.028,-0.073 -0.056,-0.143 -0.08,-0.231 -0.187,-0.683 -0.174,-1.587 0.035,-2.481 0.264,-1.134 0.743,-1.928 1.176,-2.363 l 0.544,0.097 c 0.205,0.238 0.504,1.242 0.162,2.705 z m -45.075,-9.448 c -0.553,0 -1,-0.447 -1,-1 v -4.411 c 0,-0.553 0.447,-1 1,-1 0.553,0 1,0.447 1,1 v 4.411 c 0,0.553 -0.447,1 -1,1 z m -1,-13.026 c 0,-0.553 0.447,-1 1,-1 0.553,0 1,0.447 1,1 v 4.412 c 0,0.553 -0.447,1 -1,1 -0.553,0 -1,-0.447 -1,-1 z m 0,-3.203 v -4.411 c 0,-0.553 0.447,-1 1,-1 0.553,0 1,0.447 1,1 v 4.411 c 0,0.553 -0.447,1 -1,1 -0.553,0 -1,-0.447 -1,-1 z"
     id="path2"
     inkscape:connector-curvature="0" /></svg>