<?xml version="1.0" encoding="UTF-8" standalone="no"?>
<svg
   xmlns:dc="http://purl.org/dc/elements/1.1/"
   xmlns:cc="http://creativecommons.org/ns#"
   xmlns:rdf="http://www.w3.org/1999/02/22-rdf-syntax-ns#"
   xmlns:svg="http://www.w3.org/2000/svg"
   xmlns="http://www.w3.org/2000/svg"
   xmlns:sodipodi="http://sodipodi.sourceforge.net/DTD/sodipodi-0.dtd"
   xmlns:inkscape="http://www.inkscape.org/namespaces/inkscape"
   version="1.1"
   x="0px"
   y="0px"
   viewBox="0 0 95.000999 76.111"
   enable-background="new 0 0 100 100"
   xml:space="preserve"
   id="svg50"
   sodipodi:docname="bisness.svg"
   width="95.000999"
   height="76.111"
   inkscape:version="0.92.2 (5c3e80d, 2017-08-06)"><metadata
     id="metadata56"><rdf:RDF><cc:Work
         rdf:about=""><dc:format>image/svg+xml</dc:format><dc:type
           rdf:resource="http://purl.org/dc/dcmitype/StillImage" /><dc:title></dc:title></cc:Work></rdf:RDF></metadata><defs
     id="defs54" /><sodipodi:namedview
     pagecolor="#ffffff"
     bordercolor="#666666"
     borderopacity="1"
     objecttolerance="10"
     gridtolerance="10"
     guidetolerance="10"
     inkscape:pageopacity="0"
     inkscape:pageshadow="2"
     inkscape:window-width="640"
     inkscape:window-height="480"
     id="namedview52"
     showgrid="false"
     inkscape:zoom="1.888"
     inkscape:cx="47.733"
     inkscape:cy="26.496"
     inkscape:window-x="0"
     inkscape:window-y="0"
     inkscape:window-maximized="0"
     inkscape:current-layer="svg50" /><circle
     cx="47.5"
     cy="60.651005"
     r="1.846"
     id="circle2"
     style="fill:none" /><path
     d="M 92.169,0 H 48.288 46.792 2.91 C 1.347,0 0,1.189 0,2.752 v 54.093 0.189 5.012 0.314 c 0,1.563 1.347,2.877 2.91,2.877 h 35.146 c -0.041,0.896 -0.321,4.753 -2.155,6.623 -1.445,1.473 -3.454,2.854 -2.669,3.563 0.19,0.436 1.091,0.688 3.14,0.688 4.52,0 9.416,0 11.208,0 0.453,0 0.708,0 0.708,0 1.791,0 6.688,0 11.207,0 2.334,0 3.149,-0.382 3.157,-0.953 h -0.08 V 74.97 H 62.49 c -0.104,-0.77 -1.661,-1.908 -2.84,-3.106 -1.834,-1.87 -2.112,-5.726 -2.153,-6.623 h 34.674 c 1.563,0 2.83,-1.313 2.83,-2.877 V 62.049 57.038 56.848 2.754 C 95.001,1.189 93.731,0 92.169,0 Z M 47.5,62.497 c -1.021,0 -1.846,-0.825 -1.846,-1.846 0,-1.021 0.826,-1.847 1.846,-1.847 1.02,0 1.846,0.826 1.846,1.847 0,1.021 -0.827,1.846 -1.846,1.846 z M 90.993,52.842 H 4.007 V 3.817 h 86.986 v 49.025 h 0.002 z"
     id="path4"
     inkscape:connector-curvature="0" /><rect
     x="47.5"
     y="9.5669994"
     width="19.583"
     height="2.392"
     id="rect6" /><rect
     x="47.5"
     y="13.959"
     width="39.167"
     height="2.392"
     id="rect8" /><rect
     x="47.5"
     y="18.35"
     width="39.167"
     height="2.392"
     id="rect10" /><rect
     x="47.5"
     y="22.741999"
     width="39.167"
     height="2.392"
     id="rect12" /><rect
     x="47.5"
     y="27.134001"
     width="39.167"
     height="2.392"
     id="rect14" /><rect
     x="47.5"
     y="31.525"
     width="19.583"
     height="2.392"
     id="rect16" /><rect
     x="47.5"
     y="35.917"
     width="39.167"
     height="2.391"
     id="rect18" /><rect
     x="47.5"
     y="40.308002"
     width="39.167"
     height="2.391"
     id="rect20" /><rect
     x="47.5"
     y="44.699001"
     width="39.167"
     height="2.3929999"
     id="rect22" /><path
     d="m 8.468,22.049 h 2.437 c 0.288,0 0.522,-0.233 0.522,-0.522 v -4.655 c 0,-0.288 -0.234,-0.522 -0.522,-0.522 H 8.468 c -0.288,0 -0.522,0.234 -0.522,0.522 v 4.655 c 0,0.289 0.234,0.522 0.522,0.522 z"
     id="path24"
     inkscape:connector-curvature="0" /><path
     d="m 14.228,22.049 h 2.437 c 0.288,0 0.522,-0.233 0.522,-0.522 v -7.504 c 0,-0.289 -0.234,-0.522 -0.522,-0.522 h -2.437 c -0.288,0 -0.522,0.233 -0.522,0.522 v 7.504 c 0,0.289 0.234,0.522 0.522,0.522 z"
     id="path26"
     inkscape:connector-curvature="0" /><path
     d="m 22.424,10.652 h -2.437 c -0.288,0 -0.522,0.234 -0.522,0.522 v 10.353 c 0,0.289 0.234,0.522 0.522,0.522 h 2.437 c 0.288,0 0.522,-0.233 0.522,-0.522 V 11.174 c 0,-0.288 -0.234,-0.522 -0.522,-0.522 z"
     id="path28"
     inkscape:connector-curvature="0" /><polygon
     points=""
     id="polygon30"
     transform="translate(-2.267,-12.885)" /><path
     d="m 14.659,38.166 -0.433,-0.25 h 0.683 v -6.691 c -1.178,0.036 -2.181,0.326 -3.22,0.926 -1.607,0.928 -2.757,2.426 -3.238,4.218 -0.458,1.711 -0.255,3.496 0.573,5.052 z"
     id="path32"
     inkscape:connector-curvature="0" /><path
     d="m 17.872,40.021 -2.713,-1.566 -5.885,3.4 c 0.62,1.003 1.373,1.727 2.414,2.327 1.056,0.609 2.254,0.932 3.466,0.932 2.394,0 4.629,-1.243 5.894,-3.26 z"
     id="path34"
     inkscape:connector-curvature="0" /><path
     d="m 15.41,38.022 5.887,3.399 c 0.558,-1.038 0.809,-2.053 0.809,-3.256 0,-3.745 -2.981,-6.808 -6.696,-6.94 z"
     id="path36"
     inkscape:connector-curvature="0" /><polygon
     points="17.427,43.856 17.426,43.856 "
     id="polygon38"
     transform="translate(-2.267,-12.885)" /><polygon
     points="17.427,43.856 17.426,43.856 17.426,51.051 17.427,51.051 17.427,43.856 "
     id="polygon40"
     transform="translate(-2.267,-12.885)" /><path
     d="m 43.978,12.821 c -0.466,0 -0.841,0.376 -0.841,0.84 0,0.117 0.023,0.229 0.065,0.33 l -4.082,2.995 c -0.147,-0.127 -0.337,-0.202 -0.546,-0.202 -0.229,0 -0.44,0.093 -0.592,0.244 l -3.751,-2.351 c 0.028,-0.084 0.045,-0.176 0.045,-0.271 0,-0.463 -0.377,-0.839 -0.841,-0.839 -0.465,0 -0.841,0.376 -0.841,0.839 0,0.163 0.047,0.314 0.127,0.442 l -3.479,3.479 c -0.128,-0.079 -0.279,-0.126 -0.442,-0.126 -0.464,0 -0.84,0.378 -0.84,0.84 0.002,0.464 0.378,0.839 0.842,0.839 0.465,0 0.842,-0.375 0.842,-0.84 0,-0.161 -0.048,-0.313 -0.127,-0.44 l 3.478,-3.48 c 0.129,0.08 0.28,0.128 0.442,0.128 0.23,0 0.439,-0.094 0.591,-0.244 l 3.753,2.348 c -0.029,0.085 -0.045,0.177 -0.045,0.271 0,0.466 0.374,0.841 0.839,0.841 0.464,0 0.839,-0.375 0.839,-0.841 0,-0.117 -0.023,-0.227 -0.066,-0.328 l 4.083,-2.996 c 0.147,0.126 0.338,0.202 0.547,0.202 0.464,0 0.838,-0.375 0.838,-0.84 0,-0.465 -0.375,-0.84 -0.838,-0.84 z"
     id="path42"
     inkscape:connector-curvature="0" /><path
     d="m 37.345,37.115 c -1.453,-0.547 -2.052,-0.906 -2.052,-1.47 0,-0.479 0.36,-0.958 1.471,-0.958 1.231,0 2.018,0.394 2.462,0.583 l 0.496,-1.933 c -0.564,-0.274 -1.334,-0.513 -2.479,-0.564 v -1.504 h -1.676 v 1.624 c -1.829,0.358 -2.889,1.538 -2.889,3.042 0,1.659 1.248,2.514 3.078,3.129 1.265,0.426 1.812,0.837 1.812,1.486 0,0.685 -0.666,1.061 -1.641,1.061 -1.111,0 -2.12,-0.357 -2.838,-0.751 l -0.513,2 c 0.65,0.375 1.761,0.683 2.907,0.735 v 1.623 h 1.674 v -1.744 c 1.966,-0.342 3.043,-1.642 3.043,-3.164 0,-1.536 -0.821,-2.476 -2.855,-3.195 z"
     id="path44"
     inkscape:connector-curvature="0" /></svg>