<?xml version="1.0" encoding="UTF-8" standalone="no"?>
<svg
   xmlns:dc="http://purl.org/dc/elements/1.1/"
   xmlns:cc="http://creativecommons.org/ns#"
   xmlns:rdf="http://www.w3.org/1999/02/22-rdf-syntax-ns#"
   xmlns:svg="http://www.w3.org/2000/svg"
   xmlns="http://www.w3.org/2000/svg"
   xmlns:sodipodi="http://sodipodi.sourceforge.net/DTD/sodipodi-0.dtd"
   xmlns:inkscape="http://www.inkscape.org/namespaces/inkscape"
   version="1.1"
   x="0px"
   y="0px"
   viewBox="0 0 79.900002 95"
   xml:space="preserve"
   id="svg10"
   sodipodi:docname="made.svg"
   width="79.900002"
   height="95"
   inkscape:version="0.92.2 (5c3e80d, 2017-08-06)"><metadata
     id="metadata16"><rdf:RDF><cc:Work
         rdf:about=""><dc:format>image/svg+xml</dc:format><dc:type
           rdf:resource="http://purl.org/dc/dcmitype/StillImage" /><dc:title></dc:title></cc:Work></rdf:RDF></metadata><defs
     id="defs14" /><sodipodi:namedview
     pagecolor="#ffffff"
     bordercolor="#666666"
     borderopacity="1"
     objecttolerance="10"
     gridtolerance="10"
     guidetolerance="10"
     inkscape:pageopacity="0"
     inkscape:pageshadow="2"
     inkscape:window-width="640"
     inkscape:window-height="480"
     id="namedview12"
     showgrid="false"
     inkscape:zoom="1.888"
     inkscape:cx="40"
     inkscape:cy="35.1"
     inkscape:window-x="0"
     inkscape:window-y="0"
     inkscape:window-maximized="0"
     inkscape:current-layer="svg10" /><g
     id="g4"
     transform="translate(-10,-2.6)"><path
       d="m 89.7,19.6 c 0,-0.1 -0.1,-0.3 -0.2,-0.4 0,0 0,0 0,0 -0.1,-0.1 -0.2,-0.2 -0.3,-0.3 0,0 0,0 -0.1,-0.1 -0.1,-0.1 -0.2,-0.2 -0.4,-0.2 0,0 0,0 0,0 L 78,14.3 C 77.9,13.3 77.2,11.7 74.4,10.6 72.1,9.7 68.9,9.3 65.9,9.5 L 60.6,7.4 C 60.5,6.4 59.7,4.9 57,3.8 53.1,2.2 46.9,2.2 43,3.8 40.2,4.9 39.5,6.4 39.4,7.4 l -5.3,2.1 c -3,-0.2 -6.1,0.2 -8.4,1.1 -2.8,1.1 -3.5,2.7 -3.6,3.7 l -10.9,4.4 c 0,0 0,0 0,0 -0.1,0.1 -0.2,0.1 -0.4,0.2 0,0 -0.1,0 -0.1,0.1 -0.1,0.1 -0.2,0.2 -0.3,0.3 0,0 0,0 0,0 -0.1,0.1 -0.1,0.2 -0.2,0.4 0,0 0,0.1 0,0.1 0,0.1 -0.1,0.3 -0.1,0.4 v 14.1 c 0,0.6 0.4,1.2 1,1.5 l 16.3,6.5 c -0.6,0.2 -1.2,0.3 -1.8,0.6 -2.8,1.1 -3.5,2.7 -3.6,3.7 L 11.1,51 c 0,0 0,0 0,0 -0.1,0.1 -0.2,0.1 -0.4,0.2 0,0 -0.1,0 -0.1,0.1 -0.1,0.1 -0.2,0.2 -0.3,0.3 0,0 0,0 0,0 -0.1,0.1 -0.1,0.2 -0.2,0.4 0,0 0,0.1 0,0.1 0,0.1 -0.1,0.3 -0.1,0.4 v 14.1 14.1 c 0,0.6 0.4,1.2 1,1.5 l 38.3,15.3 c 0,0 0,0 0,0 0.2,0.1 0.4,0.1 0.6,0.1 0.2,0 0.4,0 0.6,-0.1 0,0 0,0 0,0 L 88.8,82 c 0.6,-0.2 1,-0.8 1,-1.5 V 66.4 52.3 c 0,-0.1 0,-0.3 -0.1,-0.4 0,0 0,-0.1 0,-0.1 0,-0.1 -0.1,-0.3 -0.2,-0.4 0,0 0,0 0,0 -0.1,-0.1 -0.2,-0.2 -0.3,-0.3 0,0 0,0 -0.1,-0.1 -0.1,-0.1 -0.2,-0.2 -0.4,-0.2 0,0 0,0 0,0 L 78,46.5 c -0.1,-1 -0.8,-2.6 -3.6,-3.7 -0.6,-0.2 -1.2,-0.4 -1.8,-0.6 l 16.3,-6.5 c 0.6,-0.2 1,-0.8 1,-1.5 V 20.1 c -0.1,-0.1 -0.1,-0.3 -0.2,-0.5 0.1,0.1 0.1,0 0,0 z M 78,20.3 c 0,-0.1 0,-0.1 0,-0.2 v -2.4 l 6,2.4 -8.3,3.3 c 1.8,-1.1 2.2,-2.3 2.3,-3.1 z M 61.5,13.5 c 3.2,-1.3 8.5,-1.3 11.7,0 1.3,0.5 1.6,1 1.7,1.1 0,0.1 -0.4,0.6 -1.7,1.1 -3.2,1.3 -8.5,1.3 -11.7,0 -1.3,-0.5 -1.6,-1 -1.7,-1.1 0.1,-0.1 0.4,-0.6 1.7,-1.1 z m 13.4,4.9 V 20 c 0,0 0,0 0,0 0,0.1 -0.4,0.6 -1.7,1.1 -3.2,1.3 -8.5,1.3 -11.7,0 -0.4,-0.2 -0.7,-0.3 -1,-0.5 -0.1,-0.4 -0.3,-0.9 -0.7,-1.3 v -1 c 0.2,0.1 0.3,0.1 0.5,0.2 2,0.8 4.5,1.2 7,1.2 2.5,0 5,-0.4 7,-1.2 0.2,0.1 0.4,0 0.6,-0.1 z m -14.3,8.8 c 0,-0.1 0,-0.1 0,-0.2 v -2.8 c 1.9,0.7 4.3,1.1 6.7,1.1 1.8,0 3.6,-0.2 5.2,-0.6 l -14.2,5.7 c 1.9,-1.1 2.3,-2.4 2.3,-3.2 z M 44.2,6.7 c 1.5,-0.7 3.7,-1 5.8,-1 2.1,0 4.3,0.3 5.8,1 1.3,0.5 1.6,1 1.7,1.1 0,0.1 -0.4,0.6 -1.7,1.1 -3.2,1.3 -8.5,1.3 -11.7,0 0,0 0,0 0,0 -1.3,-0.5 -1.6,-1 -1.7,-1.1 0.1,-0.1 0.5,-0.6 1.8,-1.1 z m 11.6,7.7 c -3.2,1.3 -8.5,1.3 -11.7,0 -0.4,-0.1 -0.6,-0.3 -0.9,-0.4 -0.1,-0.5 -0.3,-1 -0.8,-1.5 v -0.8 c 0.2,0.1 0.3,0.1 0.5,0.2 v 0 c 2,0.8 4.5,1.2 7,1.2 2.5,0 5,-0.4 7,-1.2 0.2,-0.1 0.3,-0.1 0.5,-0.2 v 0.9 c -0.4,0.5 -0.6,1 -0.7,1.4 -0.2,0.1 -0.5,0.2 -0.9,0.4 z m 0.9,3 v 0 c 0,0 0,0 0,0 0,0 0,0 0,0 z m -12.5,3 c 1.6,-0.6 3.7,-0.9 5.8,-0.9 2.1,0 4.3,0.3 5.8,1 1.3,0.5 1.6,1 1.7,1.1 0,0.1 -0.4,0.6 -1.7,1.1 -3.2,1.3 -8.5,1.3 -11.7,0 0,0 0,0 0,0 -1.3,-0.5 -1.6,-1 -1.7,-1.1 0.1,-0.2 0.5,-0.7 1.8,-1.2 z m 13.3,33.3 c 0,0.1 -0.4,0.6 -1.7,1.1 -3.2,1.3 -8.5,1.3 -11.7,0 0,0 0,0 0,0 -1.3,-0.5 -1.6,-1 -1.7,-1.1 0,-0.1 0.4,-0.6 1.7,-1.1 1.6,-0.6 3.7,-0.9 5.8,-0.9 2.1,0 4.3,0.3 5.8,1 1.4,0.4 1.8,0.9 1.8,1 z m -0.8,-4.1 c 0,0 0,0 0,0 v 0 c 0,0 0,0 0,0 z m 0.8,7.9 v 1.6 c 0,0 0,0 0,0 0,0.1 -0.4,0.6 -1.7,1.1 -3.2,1.3 -8.5,1.3 -11.7,0 -1.3,-0.5 -1.6,-1 -1.7,-1.1 0,0 0,0 0,-0.1 v -1.6 c 0.2,0.1 0.3,0.1 0.5,0.2 v 0 c 2,0.8 4.5,1.2 7,1.2 2.5,0 5,-0.4 7,-1.2 0.3,0.1 0.4,0 0.6,-0.1 z M 44.7,31.6 c 1.6,0.4 3.5,0.6 5.3,0.6 1.9,0 3.7,-0.2 5.3,-0.6 L 50,33.7 Z m -0.5,-3.5 c -1.3,-0.5 -1.6,-1 -1.7,-1.1 0,0 0,0 0,-0.1 v -1.6 c 0.2,0.1 0.3,0.1 0.5,0.2 v 0 c 2,0.8 4.5,1.2 7,1.2 2.5,0 5,-0.4 7,-1.2 0.2,-0.1 0.3,-0.1 0.5,-0.2 V 27 c 0,0 0,0 0,0 0,0.1 -0.4,0.6 -1.7,1.1 -3.1,1.3 -8.5,1.3 -11.6,0 z m -2.5,2.3 -14.3,-5.7 c 1.6,0.4 3.5,0.6 5.3,0.6 2.4,0 4.7,-0.4 6.6,-1.1 V 27 c 0,0.1 0,0.1 0,0.2 0.1,0.8 0.6,2.1 2.4,3.2 z m -9,-10.6 c 2.5,0 5,-0.4 7,-1.2 0.2,-0.1 0.3,-0.1 0.5,-0.2 v 0.9 c -0.4,0.5 -0.7,1 -0.8,1.5 -0.2,0.1 -0.5,0.3 -0.9,0.4 -3.2,1.3 -8.5,1.3 -11.7,0 -1.3,-0.5 -1.6,-1 -1.7,-1.1 0,0 0,0 0,-0.1 v -1.6 c 0.2,0.1 0.3,0.1 0.5,0.2 v 0 c 2.1,0.8 4.6,1.2 7.1,1.2 z m -5.8,-6.3 c 3.2,-1.3 8.5,-1.3 11.7,0 1.3,0.5 1.6,1 1.7,1.1 0,0.1 -0.4,0.6 -1.7,1.1 -3.2,1.3 -8.5,1.3 -11.7,0 -1.3,-0.5 -1.6,-1 -1.7,-1.1 0,-0.1 0.4,-0.6 1.7,-1.1 z m -4.8,4.2 v 2.5 c 0,0.1 0,0.1 0,0.2 0.1,0.8 0.5,2.1 2.3,3.2 L 16,20.1 Z M 13.3,33.2 V 22.4 l 35.1,14 V 47.2 Z M 32.7,52 c 2.5,0 5,-0.4 7,-1.2 0.2,-0.1 0.3,-0.1 0.5,-0.2 v 0.9 c -0.4,0.5 -0.7,1 -0.8,1.5 -0.2,0.1 -0.5,0.3 -0.9,0.4 -3.2,1.3 -8.5,1.3 -11.7,0 -1.3,-0.5 -1.6,-1 -1.7,-1.1 0,0 0,0 0,-0.1 v -1.6 c 0.2,0.1 0.3,0.1 0.5,0.2 v 0 c 2.1,0.8 4.6,1.2 7.1,1.2 z m 0,5.5 c 2.4,0 4.7,-0.4 6.6,-1.1 v 2.8 c 0,0.1 0,0.1 0,0.2 0.1,0.8 0.5,2.1 2.3,3.2 L 27.3,56.9 c 1.7,0.4 3.6,0.6 5.4,0.6 z M 26.9,45.7 c 1.9,-0.7 4.5,-1 7,-0.9 l 6,2.4 c -0.3,0.2 -0.7,0.5 -1.3,0.7 -3.2,1.3 -8.5,1.3 -11.7,0 -1.3,-0.5 -1.6,-1 -1.7,-1.1 0,-0.1 0.4,-0.6 1.7,-1.1 z m -4.8,4.2 v 2.5 c 0,0.1 0,0.1 0,0.2 0.1,0.8 0.5,2.1 2.3,3.2 L 16,52.3 Z M 48.4,93.6 13.3,79.6 V 68.8 l 35.1,14 z m 0,-14.2 -35.1,-14 V 54.6 l 35.1,14 z M 50,65.9 44.7,63.8 c 1.6,0.4 3.5,0.6 5.3,0.6 1.9,0 3.7,-0.2 5.3,-0.6 z m 36.7,13.6 -35.1,14 V 82.8 l 35.1,-14 z m 0,-14.1 -35.1,14 V 68.7 l 35.1,-14 z m -26.1,-6 c 0,-0.1 0,-0.1 0,-0.2 v -2.8 c 1.9,0.7 4.3,1.1 6.7,1.1 1.8,0 3.6,-0.2 5.2,-0.6 l -14.2,5.7 c 1.9,-1.1 2.3,-2.4 2.3,-3.2 z m -0.8,-7.8 v -1 c 0.2,0.1 0.3,0.1 0.5,0.2 2,0.8 4.5,1.2 7,1.2 2.5,0 5,-0.4 7,-1.2 0.2,-0.1 0.3,-0.1 0.5,-0.2 v 1.6 c 0,0 0,0 0,0 0,0.1 -0.4,0.6 -1.7,1.1 -3.2,1.3 -8.5,1.3 -11.7,0 -0.4,-0.2 -0.7,-0.3 -1,-0.5 0,-0.3 -0.2,-0.7 -0.6,-1.2 z M 78,52.5 c 0,-0.1 0,-0.1 0,-0.2 v -2.4 l 6,2.4 -8.3,3.3 c 1.8,-1.1 2.2,-2.3 2.3,-3.1 z m -4.8,-6.8 c 1.3,0.5 1.6,1 1.7,1.1 0,0.1 -0.4,0.6 -1.7,1.1 -3.2,1.3 -8.5,1.3 -11.7,0 -0.7,-0.3 -1.1,-0.5 -1.3,-0.7 l 6,-2.4 c 2.4,-0.2 5.1,0.1 7,0.9 z M 86.7,33.2 51.6,47.2 V 36.5 l 35.1,-14 z"
       id="path2"
       inkscape:connector-curvature="0" /></g></svg>