<?xml version="1.0" encoding="UTF-8" standalone="no"?>
<svg
   xmlns:dc="http://purl.org/dc/elements/1.1/"
   xmlns:cc="http://creativecommons.org/ns#"
   xmlns:rdf="http://www.w3.org/1999/02/22-rdf-syntax-ns#"
   xmlns:svg="http://www.w3.org/2000/svg"
   xmlns="http://www.w3.org/2000/svg"
   xmlns:sodipodi="http://sodipodi.sourceforge.net/DTD/sodipodi-0.dtd"
   xmlns:inkscape="http://www.inkscape.org/namespaces/inkscape"
   version="1.1"
   x="0px"
   y="0px"
   viewBox="0 0 85.001808 84.957695"
   enable-background="new 0 0 100 100"
   xml:space="preserve"
   id="svg34"
   sodipodi:docname="customer.svg"
   width="85.001808"
   height="84.957695"
   inkscape:version="0.92.2 (5c3e80d, 2017-08-06)"><metadata
     id="metadata40"><rdf:RDF><cc:Work
         rdf:about=""><dc:format>image/svg+xml</dc:format><dc:type
           rdf:resource="http://purl.org/dc/dcmitype/StillImage" /></cc:Work></rdf:RDF></metadata><defs
     id="defs38" /><sodipodi:namedview
     pagecolor="#ffffff"
     bordercolor="#666666"
     borderopacity="1"
     objecttolerance="10"
     gridtolerance="10"
     guidetolerance="10"
     inkscape:pageopacity="0"
     inkscape:pageshadow="2"
     inkscape:window-width="640"
     inkscape:window-height="480"
     id="namedview36"
     showgrid="false"
     inkscape:zoom="1.888"
     inkscape:cx="42.002807"
     inkscape:cy="30.308"
     inkscape:window-x="0"
     inkscape:window-y="0"
     inkscape:window-maximized="0"
     inkscape:current-layer="svg34" /><g
     id="g28"
     transform="translate(-7.9971934,-7.8503014)"><path
       d="m 73.551,32.054 c -1.746,0 -3.165,1.419 -3.165,3.164 0,1.745 1.419,3.165 3.165,3.165 1.744,0 3.164,-1.42 3.164,-3.165 0,-1.745 -1.42,-3.164 -3.164,-3.164 z m 0,4.361 c -0.66,0 -1.197,-0.538 -1.197,-1.197 0,-0.659 0.537,-1.196 1.197,-1.196 0.659,0 1.195,0.537 1.195,1.196 0,0.659 -0.536,1.197 -1.195,1.197 z"
       id="path2"
       inkscape:connector-curvature="0" /><path
       d="m 65.234,32.054 c -1.746,0 -3.165,1.419 -3.165,3.164 0,1.745 1.419,3.165 3.165,3.165 1.746,0 3.166,-1.42 3.166,-3.165 0,-1.745 -1.42,-3.164 -3.166,-3.164 z m 0,4.361 c -0.66,0 -1.197,-0.538 -1.197,-1.197 0,-0.659 0.537,-1.196 1.197,-1.196 0.661,0 1.197,0.537 1.197,1.196 0.001,0.659 -0.535,1.197 -1.197,1.197 z"
       id="path4"
       inkscape:connector-curvature="0" /><path
       d="m 85.031,35.217 c 0,-1.745 -1.42,-3.164 -3.164,-3.164 -1.746,0 -3.167,1.419 -3.167,3.164 0,1.745 1.421,3.165 3.167,3.165 1.744,0 3.164,-1.42 3.164,-3.165 z m -4.363,0 c 0,-0.659 0.538,-1.196 1.199,-1.196 0.659,0 1.195,0.537 1.195,1.196 0,0.66 -0.536,1.197 -1.195,1.197 -0.661,10e-4 -1.199,-0.537 -1.199,-1.197 z"
       id="path6"
       inkscape:connector-curvature="0" /><path
       d="M 87.632,17.348 H 61.109 c 0.09,-2.24 -0.217,-3.976 -0.25,-4.155 l -0.193,-1.018 -1.007,0.244 C 59.644,12.422 58.17,12.79 56.176,12.724 54.417,12.674 52.904,11.856 51.151,10.91 48.263,9.352 44.682,7.413 38.337,7.938 c -7.661,0.639 -10.286,5.021 -10.971,6.536 -0.669,0.259 -1.795,0.884 -2.711,2.347 -1.823,2.908 -1.865,7.551 -0.132,13.792 -0.538,1.053 -0.553,2.617 0.07,4.235 0.625,1.641 1.735,2.825 2.888,3.147 0.54,3.443 2.461,6.794 5.009,9.282 0.042,1.517 -0.188,3.103 -0.491,3.364 -0.636,0.336 -6.758,2.306 -12.175,3.982 C 14.084,56.266 10.713,60.1 9.8,66.04 L 8.014,79.969 c -0.115,1.484 0.363,2.888 1.347,3.95 0.985,1.064 2.348,1.65 3.837,1.65 h 23.199 l -0.131,1.59 5.177,5.649 5.003,-5.659 -0.13,-1.58 h 23.349 c 1.483,0 2.844,-0.586 3.827,-1.646 0.986,-1.064 1.465,-2.469 1.346,-4.003 L 73.05,66.018 C 72.144,60.101 68.774,56.267 63.053,54.628 57.614,52.945 51.491,50.976 50.881,50.655 50.552,50.376 50.317,48.742 50.37,47.203 c 1.306,-1.282 2.448,-2.784 3.327,-4.397 0.675,2.19 2.691,3.795 5.101,3.795 h 3.609 v 5.881 l 9.877,-5.881 h 15.35 c 2.959,0 5.365,-2.407 5.365,-5.366 V 22.712 c -0.002,-2.958 -2.408,-5.364 -5.367,-5.364 z m -61.356,0.591 c 0.869,-1.438 1.972,-1.688 2.001,-1.695 l 0.587,-0.105 0.178,-0.569 c 0.016,-0.05 1.669,-5.021 9.458,-5.67 5.742,-0.486 8.918,1.231 11.715,2.742 1.891,1.021 3.677,1.987 5.904,2.05 1.186,0.033 2.212,-0.064 2.93,-0.166 0.25,2.545 0.383,9.35 -4.948,11.39 -0.029,0.011 -0.049,0.034 -0.075,0.048 -0.629,0.254 -3.088,1.13 -6.628,0.834 -8.91,-0.763 -14.551,-5.693 -14.606,-5.743 l -1.241,-1.102 -0.374,1.615 c -0.016,0.067 -0.292,1.277 -0.456,2.829 l -3.406,-2.2 V 29.5 c -0.357,-0.137 -0.717,-0.158 -1.07,-0.123 -1.689,-6.505 -0.944,-9.821 0.031,-11.438 z m 29.703,11.48 c -0.135,0.027 -0.269,0.024 -0.401,0.074 l 0.016,-2.114 c 0.361,-0.176 0.702,-0.366 1.019,-0.575 -0.056,0.804 -0.233,1.741 -0.634,2.615 z m -26.777,6.441 -1.1,0.252 c -0.321,0 -1.141,-0.577 -1.672,-1.971 -0.582,-1.513 -0.299,-2.71 0.019,-2.839 0.177,0 0.603,0.222 1.056,0.835 l 1.776,2.402 v -8.726 l 3.25,2.091 0.042,-1.751 c 0.022,-0.93 0.129,-1.854 0.239,-2.594 2.276,1.614 7.346,4.595 14.418,5.2 2.833,0.245 5.049,-0.187 6.39,-0.576 l -0.056,6.398 1.802,-2.445 c 0.423,-0.573 0.818,-0.799 1.047,-0.818 0.024,0.005 0.049,0.017 0.073,0.02 0.271,0.175 0.522,1.331 -0.047,2.806 -0.529,1.387 -1.346,1.964 -1.7,1.964 -0.002,0 -0.002,0 -0.004,0 l -1.1,-0.252 -0.102,1.124 c -0.591,6.582 -7.16,12.437 -11.924,12.437 h -0.35 c -5.348,0 -11.364,-6.276 -11.922,-12.438 z m 22.749,17.277 -3.624,9.029 -3.967,-3.096 5.939,-6.534 c 0.382,0.153 0.946,0.358 1.652,0.601 z M 41.26,51.386 h 0.35 c 2.288,0 4.676,-0.968 6.817,-2.535 0.017,0.209 0.043,0.42 0.071,0.633 -2.874,2.631 -6.674,2.699 -6.714,2.699 -0.246,0 -0.447,0.2 -0.447,0.448 0,0.247 0.199,0.447 0.447,0.447 0,0 0,0 0.002,0 0.192,0 3.863,-0.064 6.909,-2.575 0.062,0.221 0.139,0.426 0.222,0.625 l -6.436,7.084 H 40.37 l -6.435,-7.084 c 0.279,-0.663 0.426,-1.459 0.489,-2.224 2.13,1.54 4.517,2.482 6.836,2.482 z m -8.707,1.15 5.939,6.534 -3.962,3.095 -3.625,-9.029 c 0.704,-0.242 1.268,-0.447 1.648,-0.6 z M 13.197,83.601 c -0.935,0 -1.784,-0.361 -2.391,-1.019 -0.607,-0.655 -0.902,-1.529 -0.835,-2.41 l 1.778,-13.855 c 0.793,-5.162 3.612,-8.368 8.636,-9.808 1.656,-0.513 5.596,-1.74 8.649,-2.745 l 4.643,11.565 4.684,-3.658 -1.804,21.93 z M 41.415,89.865 38.297,86.464 40.46,60.18 h 1.788 l 2.165,26.295 z m 29.684,-23.573 1.779,13.829 c 0.071,0.932 -0.224,1.807 -0.832,2.463 -0.606,0.655 -1.452,1.017 -2.382,1.017 H 46.153 l -1.816,-22.052 4.844,3.78 4.641,-11.565 c 3.055,1.006 7,2.234 8.667,2.751 5.005,1.434 7.823,4.64 8.61,9.777 z m 19.93,-25.057 c 0,1.874 -1.524,3.398 -3.397,3.398 H 71.74 l -7.367,4.385 v -4.385 h -5.577 c -1.872,0 -3.395,-1.524 -3.395,-3.398 v -3.247 c 1.148,-0.327 2.253,-1.506 2.875,-3.137 0.772,-1.997 0.582,-3.919 -0.381,-4.884 0.811,-1.966 0.753,-4.026 0.675,-4.918 1.386,-1.7 2.063,-3.78 2.355,-5.732 h 26.706 c 1.873,0 3.397,1.523 3.397,3.396 v 18.522 z"
       id="path8"
       inkscape:connector-curvature="0" /><path
       d="m 30.23,16.833 c 0.043,0.014 0.087,0.02 0.131,0.02 0.19,0 0.367,-0.124 0.428,-0.315 0.051,-0.166 1.342,-4.056 8.065,-4.657 3.929,-0.356 6.803,1.065 9.561,2.439 2.348,1.168 4.564,2.273 7.338,2.31 10e-4,0 0.003,0 0.005,0 0.245,0 0.444,-0.197 0.447,-0.441 0.004,-0.248 -0.194,-0.45 -0.442,-0.454 -2.567,-0.034 -4.696,-1.094 -6.95,-2.216 -2.868,-1.429 -5.845,-2.901 -10.04,-2.529 -7.358,0.658 -8.783,5.1 -8.84,5.288 -0.072,0.236 0.061,0.483 0.297,0.555 z"
       id="path10"
       inkscape:connector-curvature="0" /><path
       d="m 21.311,57.326 c -5.209,1.48 -7.775,4.425 -8.579,9.854 l -1.101,8.52 c -0.031,0.244 0.142,0.47 0.386,0.501 0.021,0.002 0.04,0.004 0.059,0.004 0.221,0 0.414,-0.164 0.443,-0.39 l 1.099,-8.513 c 0.753,-5.086 3.053,-7.727 7.937,-9.114 0.238,-0.067 0.376,-0.315 0.309,-0.553 -0.067,-0.238 -0.312,-0.376 -0.553,-0.309 z"
       id="path12"
       inkscape:connector-curvature="0" /><path
       d="m 69.141,67.268 0.684,5.383 c 0.028,0.228 0.223,0.392 0.444,0.392 0.018,0 0.036,-0.002 0.056,-0.003 0.245,-0.032 0.42,-0.256 0.388,-0.5 l -0.685,-5.395 c -0.367,-2.466 -1.102,-4.382 -2.248,-5.858 -0.152,-0.196 -0.434,-0.23 -0.627,-0.08 -0.196,0.152 -0.231,0.433 -0.079,0.629 1.048,1.35 1.725,3.131 2.067,5.432 z"
       id="path14"
       inkscape:connector-curvature="0" /><path
       d="m 30.186,27.631 v 3.353 c 0,0.248 0.201,0.447 0.448,0.447 0.246,0 0.447,-0.2 0.447,-0.447 v -1.875 l 1.063,0.557 c 0.22,0.114 0.491,0.031 0.604,-0.189 0.114,-0.219 0.03,-0.489 -0.189,-0.604 z"
       id="path16"
       inkscape:connector-curvature="0" /><path
       d="m 40.53,85.637 0.226,-3.528 c 0.018,-0.247 -0.17,-0.458 -0.418,-0.474 -0.244,-0.048 -0.459,0.171 -0.474,0.418 l -0.253,3.916 1.271,1.347 c 0.087,0.092 0.206,0.14 0.325,0.14 0.11,0 0.22,-0.04 0.308,-0.123 0.18,-0.169 0.187,-0.452 0.018,-0.632 z"
       id="path18"
       inkscape:connector-curvature="0" /><path
       d="m 33.934,66.694 c -0.19,0.157 -0.22,0.438 -0.064,0.631 0.157,0.192 0.438,0.218 0.631,0.064 l 1.426,-1.162 -0.813,10.468 c -0.019,0.246 0.165,0.461 0.411,0.48 0.013,0.002 0.025,0.002 0.035,0.002 0.232,0 0.428,-0.179 0.446,-0.413 l 0.975,-12.548 z"
       id="path20"
       inkscape:connector-curvature="0" /><path
       d="m 89.303,36.036 c -0.247,0 -0.447,0.2 -0.447,0.447 v 0.413 c 0,0.248 0.2,0.447 0.447,0.447 0.246,0 0.447,-0.2 0.447,-0.447 v -0.413 c 0,-0.247 -0.201,-0.447 -0.447,-0.447 z"
       id="path22"
       inkscape:connector-curvature="0" /><path
       d="m 89.303,39.119 c -0.247,0 -0.447,0.2 -0.447,0.447 v 1.69 c 0,0.659 -0.457,1.12 -1.108,1.12 h -5.576 c -0.246,0 -0.447,0.2 -0.447,0.447 0,0.248 0.201,0.448 0.447,0.448 h 5.576 c 1.142,0 2.003,-0.866 2.003,-2.015 v -1.69 C 89.75,39.318 89.549,39.119 89.303,39.119 Z"
       id="path24"
       inkscape:connector-curvature="0" /><path
       d="m 72.583,20.889 c 0,-0.247 -0.201,-0.447 -0.448,-0.447 H 61.981 c -0.246,0 -0.447,0.2 -0.447,0.447 0,0.248 0.201,0.447 0.447,0.447 h 10.153 c 0.248,0 0.449,-0.199 0.449,-0.447 z"
       id="path26"
       inkscape:connector-curvature="0" /></g></svg>