<?xml version="1.0" encoding="UTF-8" standalone="no"?>
<svg
   xmlns:dc="http://purl.org/dc/elements/1.1/"
   xmlns:cc="http://creativecommons.org/ns#"
   xmlns:rdf="http://www.w3.org/1999/02/22-rdf-syntax-ns#"
   xmlns:svg="http://www.w3.org/2000/svg"
   xmlns="http://www.w3.org/2000/svg"
   xmlns:sodipodi="http://sodipodi.sourceforge.net/DTD/sodipodi-0.dtd"
   xmlns:inkscape="http://www.inkscape.org/namespaces/inkscape"
   version="1.1"
   x="0px"
   y="0px"
   viewBox="0 0 88 56"
   id="svg10"
   sodipodi:docname="email2.svg"
   inkscape:version="0.92.2 (5c3e80d, 2017-08-06)"
   width="88"
   height="56">
  <metadata
     id="metadata16">
    <rdf:RDF>
      <cc:Work
         rdf:about="">
        <dc:format>image/svg+xml</dc:format>
        <dc:type
           rdf:resource="http://purl.org/dc/dcmitype/StillImage" />
        <dc:title></dc:title>
      </cc:Work>
    </rdf:RDF>
  </metadata>
  <defs
     id="defs14" />
  <sodipodi:namedview
     pagecolor="#ffffff"
     bordercolor="#666666"
     borderopacity="1"
     objecttolerance="10"
     gridtolerance="10"
     guidetolerance="10"
     inkscape:pageopacity="0"
     inkscape:pageshadow="2"
     inkscape:window-width="640"
     inkscape:window-height="480"
     id="namedview12"
     showgrid="false"
     inkscape:zoom="1.888"
     inkscape:cx="44"
     inkscape:cy="25.5"
     inkscape:window-x="0"
     inkscape:window-y="0"
     inkscape:window-maximized="0"
     inkscape:current-layer="svg10" />
  <g
     transform="translate(-6,-974.36218)"
     id="g4">
    <path
       style="color:#000000;font-style:normal;font-variant:normal;font-weight:normal;font-stretch:normal;font-size:medium;line-height:normal;font-family:Sans;-inkscape-font-specification:Sans;text-indent:0;text-align:start;text-decoration:none;text-decoration-line:none;letter-spacing:normal;word-spacing:normal;text-transform:none;writing-mode:lr-tb;direction:ltr;baseline-shift:baseline;text-anchor:start;display:inline;overflow:visible;visibility:visible;opacity:1;fill:#000000;fill-opacity:1;stroke:none;stroke-width:4;marker:none;enable-background:accumulate"
       d="m 8,22 a 2.0002,2.0002 0 0 0 -2,2 v 52 a 2.0002,2.0002 0 0 0 2,2 h 84 a 2.0002,2.0002 0 0 0 2,-2 V 24 a 2.0002,2.0002 0 0 0 -2,-2 z m 5.1875,4 h 73.625 L 50,56.375 Z M 10,28.59375 35.40625,49.5625 10,71.46875 Z m 80,0 v 42.875 l -20.6875,-18 a 2.0002,2.0002 0 0 0 -1.46875,-0.5 A 2.0002,2.0002 0 0 0 66.6875,56.5 L 86.8125,74 H 13.21875 l 25.34375,-21.84375 10.15625,8.375 a 2.0002,2.0002 0 0 0 2.5625,0 z"
       transform="translate(0,952.36218)"
       id="path2"
       inkscape:connector-curvature="0" />
  </g>
</svg>
