<?xml version="1.0" encoding="UTF-8" standalone="no"?>
<svg
   xmlns:dc="http://purl.org/dc/elements/1.1/"
   xmlns:cc="http://creativecommons.org/ns#"
   xmlns:rdf="http://www.w3.org/1999/02/22-rdf-syntax-ns#"
   xmlns:svg="http://www.w3.org/2000/svg"
   xmlns="http://www.w3.org/2000/svg"
   xmlns:sodipodi="http://sodipodi.sourceforge.net/DTD/sodipodi-0.dtd"
   xmlns:inkscape="http://www.inkscape.org/namespaces/inkscape"
   version="1.1"
   x="0px"
   y="0px"
   viewBox="0 0 82.940353 89.000999"
   xml:space="preserve"
   id="svg14"
   sodipodi:docname="handSafe.svg"
   width="82.940353"
   height="89.000999"
   inkscape:version="0.92.2 (5c3e80d, 2017-08-06)"><metadata
     id="metadata20"><rdf:RDF><cc:Work
         rdf:about=""><dc:format>image/svg+xml</dc:format><dc:type
           rdf:resource="http://purl.org/dc/dcmitype/StillImage" /></cc:Work></rdf:RDF></metadata><defs
     id="defs18" /><sodipodi:namedview
     pagecolor="#ffffff"
     bordercolor="#666666"
     borderopacity="1"
     objecttolerance="10"
     gridtolerance="10"
     guidetolerance="10"
     inkscape:pageopacity="0"
     inkscape:pageshadow="2"
     inkscape:window-width="640"
     inkscape:window-height="480"
     id="namedview16"
     showgrid="false"
     inkscape:zoom="1.888"
     inkscape:cx="37.468352"
     inkscape:cy="31.001"
     inkscape:window-x="0"
     inkscape:window-y="0"
     inkscape:window-maximized="0"
     inkscape:current-layer="svg14" /><g
     id="g8"
     transform="translate(-12.531648,-4.5)"><path
       d="m 86.747,45.524 c 0.028,-0.517 0.046,-1.035 0.046,-1.555 0,-0.678 -0.024,-1.354 -0.07,-2.026 -0.015,-0.218 -0.046,-0.432 -0.066,-0.649 -0.041,-0.453 -0.079,-0.906 -0.141,-1.355 -0.035,-0.255 -0.088,-0.507 -0.129,-0.761 -0.067,-0.406 -0.128,-0.813 -0.211,-1.214 -0.056,-0.27 -0.129,-0.535 -0.192,-0.803 -0.09,-0.381 -0.174,-0.763 -0.279,-1.14 -0.076,-0.274 -0.168,-0.543 -0.252,-0.815 -0.112,-0.364 -0.219,-0.729 -0.345,-1.088 -0.096,-0.273 -0.207,-0.541 -0.31,-0.811 -0.134,-0.351 -0.264,-0.703 -0.411,-1.048 -0.115,-0.27 -0.244,-0.534 -0.367,-0.8 -0.155,-0.337 -0.306,-0.675 -0.473,-1.006 -0.134,-0.265 -0.281,-0.524 -0.423,-0.786 -0.175,-0.324 -0.347,-0.649 -0.534,-0.966 -0.152,-0.259 -0.317,-0.51 -0.477,-0.764 -0.195,-0.31 -0.387,-0.621 -0.593,-0.924 -0.171,-0.252 -0.353,-0.496 -0.532,-0.743 -0.213,-0.295 -0.424,-0.59 -0.647,-0.878 -0.189,-0.243 -0.388,-0.479 -0.585,-0.716 -0.231,-0.279 -0.46,-0.559 -0.7,-0.831 -0.207,-0.234 -0.424,-0.46 -0.638,-0.688 -0.247,-0.262 -0.492,-0.525 -0.749,-0.78 -0.225,-0.224 -0.46,-0.44 -0.692,-0.657 C 76.715,21.475 76.454,21.23 76.183,20.994 75.94,20.782 75.689,20.578 75.439,20.373 75.162,20.146 74.886,19.919 74.6,19.701 74.34,19.502 74.072,19.31 73.805,19.119 73.515,18.911 73.225,18.704 72.927,18.505 72.649,18.32 72.365,18.142 72.081,17.965 71.888,17.844 71.702,17.714 71.505,17.598 L 74.702,5.763 C 74.783,5.462 74.72,5.142 74.53,4.894 74.34,4.645 74.047,4.5 73.735,4.5 H 56.562 c -0.312,0 -0.604,0.145 -0.794,0.392 -0.19,0.247 -0.253,0.568 -0.172,0.868 l 3.188,11.829 c -9.45,5.625 -15.288,15.663 -15.288,26.381 0,2.23 0.258,4.427 0.74,6.558 h -1.184 c -2.157,0 -4.203,0.818 -5.761,2.306 l -7.061,6.752 c -0.918,-0.557 -1.972,-0.86 -3.08,-0.86 -1.567,0 -3.044,0.601 -4.158,1.69 l -8.679,8.495 c -1.132,1.107 -1.764,2.595 -1.781,4.187 -0.017,1.592 0.583,3.092 1.69,4.223 L 28.317,91.72 c 1.124,1.148 2.633,1.781 4.25,1.781 1.568,0 3.045,-0.601 4.158,-1.69 l 8.679,-8.495 c 1.132,-1.107 1.764,-2.595 1.781,-4.187 0.012,-1.085 -0.27,-2.125 -0.797,-3.037 l 0.685,-0.511 c 1.769,-1.31 3.95,-2.03 6.145,-2.03 h 13.368 c 3.263,0 6.446,-1.124 8.964,-3.165 l 7.443,-6.023 c 0.297,-0.195 0.58,-0.421 0.848,-0.686 l 0.007,-0.006 c 0.001,-10e-4 0.001,-0.002 0.003,-0.003 0.032,-0.032 0.067,-0.057 0.098,-0.09 L 94.45,52.383 c 0.659,-0.707 1.022,-1.63 1.022,-2.598 0,-1.034 -0.433,-2.041 -1.194,-2.771 -2.085,-1.95 -5.021,-2.427 -7.531,-1.49 z M 45.495,43.97 c 0,-10.17 5.641,-19.685 14.732,-24.901 h 3.585 c 0.553,0 1,-0.447 1,-1 0,-0.553 -0.447,-1 -1,-1 H 60.714 L 57.866,6.5 H 72.43 l -2.856,10.568 h -0.569 c -0.553,0 -1,0.447 -1,1 0,0.553 0.447,1 1,1 h 1.04 c 9.101,5.205 14.748,14.723 14.748,24.901 0,0.933 -0.057,1.863 -0.153,2.776 -0.223,0.186 -0.44,0.383 -0.644,0.599 l -5.055,5.394 -1.156,0.697 c -0.005,0.003 -0.007,0.008 -0.012,0.011 -0.005,0.003 -0.011,0.003 -0.016,0.006 l -3.706,2.407 C 73.114,54.63 71.651,53.823 69.99,53.823 L 58.283,53.827 55.775,52.058 C 54.362,51.056 52.7,50.526 50.966,50.526 h -4.675 c -0.519,-2.121 -0.796,-4.32 -0.796,-6.556 z m -1.491,37.915 -8.679,8.495 c -0.738,0.723 -1.718,1.12 -2.76,1.12 -1.074,0 -2.076,-0.419 -2.82,-1.18 L 15.65,75.921 c -0.733,-0.75 -1.132,-1.745 -1.12,-2.803 0.012,-1.058 0.431,-2.045 1.18,-2.778 l 8.679,-8.495 c 0.738,-0.723 1.719,-1.12 2.76,-1.12 1.075,0 2.077,0.419 2.821,1.18 l 14.094,14.399 c 0.733,0.75 1.132,1.745 1.12,2.803 -0.012,1.058 -0.431,2.044 -1.18,2.778 z M 92.986,51.016 82.534,62.159 74.289,68.83 c -2.163,1.754 -4.899,2.72 -7.705,2.72 H 53.216 c -2.62,0 -5.225,0.86 -7.337,2.425 l -0.75,0.559 -13.362,-13.652 6.905,-6.602 c 1.184,-1.13 2.738,-1.752 4.379,-1.752 h 7.915 c 1.297,0 2.594,0.413 3.653,1.165 l 2.77,1.954 c 0.029,0.021 0.064,0.024 0.094,0.041 0.059,0.033 0.119,0.06 0.185,0.081 0.066,0.021 0.129,0.033 0.196,0.04 0.035,0.004 0.065,0.02 0.101,0.02 l 12.024,-0.004 c 1.722,0 3.122,1.4 3.122,3.122 0,1.722 -1.4,3.122 -3.122,3.122 H 56.18 c -0.553,0 -1,0.447 -1,1 0,0.553 0.447,1 1,1 h 13.81 c 2.824,0 5.122,-2.298 5.122,-5.122 0,-0.442 -0.074,-0.864 -0.18,-1.274 l 3.903,-2.535 1.247,-0.752 c 0.036,-0.022 0.057,-0.056 0.089,-0.081 0.042,-0.032 0.09,-0.051 0.127,-0.091 l 5.156,-5.501 c 1.991,-2.116 5.334,-2.225 7.446,-0.249 0.367,0.353 0.569,0.82 0.569,1.319 0.001,0.468 -0.167,0.895 -0.483,1.233 z"
       id="path2"
       inkscape:connector-curvature="0" /><circle
       cx="39.627998"
       cy="79.662003"
       r="2.858"
       id="circle4" /><path
       d="m 64.967,39.863 0.174,-0.002 c 0.807,0 1.574,0.39 2.052,1.042 0.476,0.649 0.606,1.468 0.36,2.248 -0.264,0.832 -0.979,1.494 -1.82,1.686 -0.193,0.044 -0.388,0.066 -0.578,0.066 -1.103,0 -2.074,-0.697 -2.42,-1.735 -0.134,-0.401 -0.52,-0.672 -0.959,-0.672 -0.333,0 -0.651,0.163 -0.849,0.434 -0.137,0.188 -0.456,0.63 -0.375,0.877 0.419,1.292 1.75,2.444 2.811,2.968 l 0.278,0.138 v 1.843 c 0,0.495 0.881,1.025 1.5,1.025 0.619,0 1.5,-0.53 1.5,-1.025 v -1.855 l 0.294,-0.133 c 0.933,-0.42 2.166,-1.417 2.674,-2.611 0.564,-1.328 0.375,-3.05 -0.508,-4.605 -0.696,-1.227 -2.228,-2.05 -3.811,-2.05 h -0.15 c -0.969,0 -1.681,-0.335 -2.115,-0.996 -0.476,-0.72 -0.547,-1.522 -0.205,-2.321 0.31,-0.725 0.975,-1.256 1.778,-1.422 0.155,-0.032 0.302,-0.036 0.511,-0.036 0.006,0 0.011,0 0.017,0 1.101,0 2.074,0.7 2.422,1.743 0.135,0.407 0.52,0.682 0.957,0.682 0.335,0 0.652,-0.162 0.848,-0.434 0.162,-0.225 0.463,-0.643 0.386,-0.873 -0.469,-1.399 -1.938,-2.527 -2.813,-2.944 l -0.284,-0.136 v -1.87 c 0,-0.495 -0.881,-1.025 -1.5,-1.025 -0.619,0 -1.5,0.53 -1.5,1.025 v 1.88 l -0.297,0.132 c -0.946,0.42 -2.19,1.43 -2.686,2.658 -0.561,1.385 -0.327,3.004 0.655,4.56 0.687,1.087 2.055,1.738 3.653,1.738 z"
       id="path6"
       inkscape:connector-curvature="0" /></g></svg>