<?xml version="1.0" encoding="UTF-8" standalone="no"?>
<svg
   xmlns:dc="http://purl.org/dc/elements/1.1/"
   xmlns:cc="http://creativecommons.org/ns#"
   xmlns:rdf="http://www.w3.org/1999/02/22-rdf-syntax-ns#"
   xmlns:svg="http://www.w3.org/2000/svg"
   xmlns="http://www.w3.org/2000/svg"
   xmlns:sodipodi="http://sodipodi.sourceforge.net/DTD/sodipodi-0.dtd"
   xmlns:inkscape="http://www.inkscape.org/namespaces/inkscape"
   version="1.1"
   x="0px"
   y="0px"
   viewBox="0 0 52.122669 65.599998"
   xml:space="preserve"
   id="svg2"
   inkscape:version="0.91 r13725"
   sodipodi:docname="noun_1146594_cc.svg"
   width="52.122669"
   height="65.599998"><metadata
     id="metadata18"><rdf:RDF><cc:Work
         rdf:about=""><dc:format>image/svg+xml</dc:format><dc:type
           rdf:resource="http://purl.org/dc/dcmitype/StillImage" /><dc:title></dc:title></cc:Work></rdf:RDF></metadata><defs
     id="defs16" /><sodipodi:namedview
     pagecolor="#ffffff"
     bordercolor="#666666"
     borderopacity="1"
     objecttolerance="10"
     gridtolerance="10"
     guidetolerance="10"
     inkscape:pageopacity="0"
     inkscape:pageshadow="2"
     inkscape:window-width="1307"
     inkscape:window-height="744"
     id="namedview14"
     showgrid="false"
     fit-margin-top="0"
     fit-margin-left="0"
     fit-margin-right="0"
     fit-margin-bottom="0"
     inkscape:zoom="5.3400704"
     inkscape:cx="20.422074"
     inkscape:cy="18.857018"
     inkscape:window-x="59"
     inkscape:window-y="24"
     inkscape:window-maximized="1"
     inkscape:current-layer="svg2" /><g
     id="g4"
     transform="translate(-23.938665,-17.2)"><path
       d="M 71.4,28.4 C 66.5,21.3 58.7,17.2 50,17.2 c -8.7,0 -16.5,4.1 -21.4,11.2 -4.9,7.1 -6,16 -3,24 0.8,2.2 2.1,4.3 3.8,6.3 L 50,82.8 70.6,58.6 l 0,0 c 1.7,-2 3,-4.1 3.8,-6.3 3,-7.9 1.9,-16.8 -3,-23.9 z m -2.6,21.8 c -0.6,1.5 -1.5,3 -2.8,4.5 L 50,73.6 34,54.8 c -1.3,-1.5 -2.2,-3 -2.8,-4.5 -2.3,-6.1 -1.4,-13 2.3,-18.4 3.8,-5.5 9.8,-8.6 16.5,-8.6 6.7,0 12.7,3.1 16.5,8.6 3.7,5.4 4.6,12.3 2.3,18.3 z"
       id="path6"
       inkscape:connector-curvature="0" /><path
       d="m 50,30.2 c -6.2,0 -11.2,4.9 -11.2,11 0,6.1 5,11 11.2,11 6.2,0 11.2,-4.9 11.2,-11 0,-6.1 -5,-11 -11.2,-11 z"
       id="path8"
       inkscape:connector-curvature="0" /></g></svg>