<?xml version="1.0" encoding="UTF-8" standalone="no"?>
<!-- Created with Inkscape (http://www.inkscape.org/) -->

<svg
   xmlns:dc="http://purl.org/dc/elements/1.1/"
   xmlns:cc="http://creativecommons.org/ns#"
   xmlns:rdf="http://www.w3.org/1999/02/22-rdf-syntax-ns#"
   xmlns:svg="http://www.w3.org/2000/svg"
   xmlns="http://www.w3.org/2000/svg"
   xmlns:sodipodi="http://sodipodi.sourceforge.net/DTD/sodipodi-0.dtd"
   xmlns:inkscape="http://www.inkscape.org/namespaces/inkscape"
   version="1.1"
   id="svg2"
   xml:space="preserve"
   width="333.03006"
   height="133.46133"
   viewBox="0 0 333.03006 133.46133"
   sodipodi:docname="logo.svg"
   inkscape:version="0.92.2 (5c3e80d, 2017-08-06)"><metadata
     id="metadata8"><rdf:RDF><cc:Work
         rdf:about=""><dc:format>image/svg+xml</dc:format><dc:type
           rdf:resource="http://purl.org/dc/dcmitype/StillImage" /><dc:title></dc:title></cc:Work></rdf:RDF></metadata><defs
     id="defs6"><clipPath
       clipPathUnits="userSpaceOnUse"
       id="clipPath22"><path
         d="M 0,102.828 H 255.311 V 0 H 0 Z"
         id="path20"
         inkscape:connector-curvature="0" /></clipPath><clipPath
       clipPathUnits="userSpaceOnUse"
       id="clipPath42"><path
         d="M 0,102.828 H 255.311 V 0 H 0 Z"
         id="path40"
         inkscape:connector-curvature="0" /></clipPath></defs><sodipodi:namedview
     pagecolor="#ffffff"
     bordercolor="#666666"
     borderopacity="1"
     objecttolerance="10"
     gridtolerance="10"
     guidetolerance="10"
     inkscape:pageopacity="0"
     inkscape:pageshadow="2"
     inkscape:window-width="2560"
     inkscape:window-height="1021"
     id="namedview4"
     showgrid="false"
     inkscape:zoom="1.3424803"
     inkscape:cx="167.9984"
     inkscape:cy="66.731465"
     inkscape:window-x="1280"
     inkscape:window-y="0"
     inkscape:window-maximized="1"
     inkscape:current-layer="g10" /><g
     id="g10"
     inkscape:groupmode="layer"
     inkscape:label="logo.png"
     transform="matrix(1.3333333,0,0,-1.3333333,-2.2089333,135.28186)"><text
       transform="matrix(1,0,0,-1,126.0229,63.8823)"
       style="font-variant:normal;font-weight:300;font-stretch:normal;font-size:23.1826992px;font-family:'Helvetica Light';-inkscape-font-specification:Helvetica-Light;writing-mode:lr-tb;fill:#ffffff;fill-opacity:1;fill-rule:nonzero;stroke:none"
       id="text14"><tspan
         x="0 18.80117 41.47385 61.57325 79.099373 99.198776"
         y="0"
         sodipodi:role="line"
         id="tspan12">PORTAL</tspan></text>
<g
       id="g16"
       style="fill:#ffffff"><g
         id="g18"
         clip-path="url(#clipPath22)"
         style="fill:#ffffff"><text
           transform="matrix(1,0,0,-1,126.0229,39.1108)"
           style="font-variant:normal;font-weight:300;font-stretch:normal;font-size:23.1826992px;font-family:'Helvetica Light';-inkscape-font-specification:Helvetica-Light;writing-mode:lr-tb;fill:#ffffff;fill-opacity:1;fill-rule:nonzero;stroke:none"
           id="text26"><tspan
             x="0 17.526121 28.607452 49.981903 70.081299 91.45575 112.8302"
             y="0"
             sodipodi:role="line"
             id="tspan24">FINANCE</tspan></text>
</g></g><text
       transform="matrix(1,0,0,-1,126.1802,27.0669)"
       style="font-variant:normal;font-weight:300;font-stretch:normal;font-size:7.69169998px;font-family:'Helvetica Light';-inkscape-font-specification:Helvetica-Light;writing-mode:lr-tb;fill:#ffffff;fill-opacity:1;fill-rule:nonzero;stroke:none"
       id="text30"><tspan
         x="0 5.8149252 12.483629 19.152332 26.24408 32.482048 38.296974 45.819458 52.488159 60.433685 64.110321 71.202065 78.724548 82.401184 90.34671 94.023338 100.26131 106.49928 110.17591 117.69839"
         y="0"
         sodipodi:role="line"
         id="tspan28">TRANSFORMING MISSION</tspan></text>
<text
       transform="matrix(1,0,0,-1,126.1802,17.559959)"
       style="font-variant:normal;font-weight:bold;font-stretch:normal;font-size:7.69169998px;font-family:Helvetica;-inkscape-font-specification:Helvetica-Bold;writing-mode:lr-tb;fill:#ffffff;fill-opacity:1;fill-rule:nonzero;stroke:none"
       id="text34"><tspan
         x="0 7.0917473 14.183495 17.860126 24.098097 27.774729 34.866478 41.958225 48.060051 51.736683 57.974651 61.651283 68.743027 75.834778 82.926529 90.018272"
         y="0"
         sodipodi:role="line"
         id="tspan32">CRITICAL FINANCE</tspan></text>
<g
       id="g36"
       style="fill:#ffffff"><g
         id="g38"
         clip-path="url(#clipPath42)"
         style="fill:#ffffff"><g
           id="g44"
           transform="translate(28.8027,54.6763)"
           style="fill:#ffffff"><path
             d="m 0,0 c 3.594,3.468 5.388,7.721 5.388,12.758 0,4.965 -1.794,9.203 -5.388,12.689 -3.526,3.387 -7.825,5.083 -12.898,5.083 H -27.146 V -5.212 h 14.248 C -7.9,-5.212 -3.598,-3.474 0,0"
             style="fill:#ffffff;fill-opacity:1;fill-rule:nonzero;stroke:none"
             id="path46"
             inkscape:connector-curvature="0" /></g><g
           id="g48"
           transform="translate(8.1016,101.4614)"
           style="fill:#ffffff"><path
             d="m 0,0 c -3.56,0 -6.444,-2.889 -6.444,-6.441 v -5.694 h 20.572 c 6.232,0 11.553,-2.145 15.957,-6.427 4.409,-4.278 6.611,-9.466 6.611,-15.565 0,-6.023 -2.202,-11.178 -6.611,-15.46 -4.404,-4.284 -9.725,-6.42 -15.957,-6.42 H -6.444 v -37.646 c 0,-3.557 2.884,-6.443 6.444,-6.443 H 47.467 V 0 Z"
             style="fill:#ffffff;fill-opacity:1;fill-rule:nonzero;stroke:none"
             id="path50"
             inkscape:connector-curvature="0" /></g><g
           id="g52"
           transform="translate(91.3975,45.4575)"
           style="fill:#ffffff"><path
             d="m 0,0 v -21.205 c -0.036,-6.435 3.146,-9.651 9.546,-9.651 v -2.112 H -23 v 2.112 c 6.402,0 9.582,3.216 9.548,9.651 v 53.221 c 0,6.611 -3.185,9.829 -9.548,9.652 v 2.111 h 35.539 c 9.615,0 10.881,2.678 10.881,2.678 v 3.003 c 0,3.544 -2.875,6.43 -6.425,6.43 h -47.367 v -99.882 h 47.367 c 3.55,0 6.425,2.877 6.425,6.429 v 33.805 c 0,0 -0.885,3.758 -11.291,3.758 z"
             style="fill:#ffffff;fill-opacity:1;fill-rule:nonzero;stroke:none"
             id="path54"
             inkscape:connector-curvature="0" /></g><g
           id="g56"
           transform="translate(91.3975,85.3042)"
           style="fill:#ffffff"><path
             d="m 0,0 v -36.021 h 10.05 c 9.031,0 11.387,1.078 13.37,3.061 V -2.986 C 21.556,-0.887 19.081,0 12.612,0 Z"
             style="fill:#ffffff;fill-opacity:1;fill-rule:nonzero;stroke:none"
             id="path58"
             inkscape:connector-curvature="0" /></g></g></g></g></svg>