<?xml version="1.0" encoding="UTF-8" standalone="no"?>
<svg
   xmlns:dc="http://purl.org/dc/elements/1.1/"
   xmlns:cc="http://creativecommons.org/ns#"
   xmlns:rdf="http://www.w3.org/1999/02/22-rdf-syntax-ns#"
   xmlns:svg="http://www.w3.org/2000/svg"
   xmlns="http://www.w3.org/2000/svg"
   xmlns:sodipodi="http://sodipodi.sourceforge.net/DTD/sodipodi-0.dtd"
   xmlns:inkscape="http://www.inkscape.org/namespaces/inkscape"
   version="1.1"
   x="0px"
   y="0px"
   viewBox="0 0 80.849541 67.461845"
   id="svg2"
   inkscape:version="0.91 r13725"
   sodipodi:docname="phone.svg"
   width="80.849541"
   height="67.461845">
  <metadata
     id="metadata20">
    <rdf:RDF>
      <cc:Work
         rdf:about="">
        <dc:format>image/svg+xml</dc:format>
        <dc:type
           rdf:resource="http://purl.org/dc/dcmitype/StillImage" />
        <dc:title></dc:title>
      </cc:Work>
    </rdf:RDF>
  </metadata>
  <defs
     id="defs18" />
  <sodipodi:namedview
     pagecolor="#ffffff"
     bordercolor="#666666"
     borderopacity="1"
     objecttolerance="10"
     gridtolerance="10"
     guidetolerance="10"
     inkscape:pageopacity="0"
     inkscape:pageshadow="2"
     inkscape:window-width="1307"
     inkscape:window-height="744"
     id="namedview16"
     showgrid="false"
     inkscape:zoom="3.776"
     inkscape:cx="46.954459"
     inkscape:cy="34.65121"
     inkscape:window-x="59"
     inkscape:window-y="24"
     inkscape:window-maximized="1"
     inkscape:current-layer="svg2"
     fit-margin-top="0"
     fit-margin-left="0"
     fit-margin-right="0"
     fit-margin-bottom="0">
    <sodipodi:guide
       position="-10.766965,-5.7817545"
       orientation="0,100"
       id="guide4198" />
    <sodipodi:guide
       position="89.233036,-5.7817545"
       orientation="-80,0"
       id="guide4200" />
    <sodipodi:guide
       position="89.233036,74.218245"
       orientation="0,-100"
       id="guide4202" />
    <sodipodi:guide
       position="-10.766965,74.218245"
       orientation="80,0"
       id="guide4204" />
  </sodipodi:namedview>
  <g
     transform="matrix(0.91874515,0,0,0.78444024,-5.5124852,-752.56233)"
     id="g4">
    <g
       transform="translate(-926.99998,1213)"
       style="fill:#000000"
       id="g6">
      <path
         style="color:#000000;text-indent:0;text-transform:none;direction:ltr;block-progression:tb;baseline-shift:baseline;display:inline;overflow:visible;visibility:visible;fill:#000000;fill-opacity:1;stroke:none;marker:none;enable-background:accumulate"
         d="m 963.5224,-205.23127 c -2.07797,-1.98181 -3.4492,-4.38046 -3.71227,-6.67336 -0.21221,-2.22293 0.46147,-4.54499 3.60182,-7.35833 1.03955,-0.93129 2.39844,-2.07896 3.07143,-4.08789 0.67305,-2.00899 0.22181,-4.32757 -1.01643,-6.62916 -3.45232,-4.27835 -6.60851,-9.12014 -9.72272,-12.72792 -2.13678,-2.13679 -5.22435,-2.79105 -7.51305,-2.07709 -2.16101,0.66784 -3.82733,2.14277 -5.21487,3.4913 -7.82259,7.82258 -11.10371,15.87031 -9.70063,23.97534 1.40309,8.10504 6.9783,15.72874 15.35748,24.10792 3.31408,3.31408 6.95794,6.95794 9.89949,9.8995 8.37918,8.37918 16.00289,13.9544 24.10793,15.35748 8.10504,1.40307 16.15276,-1.87805 23.97532,-9.70063 1.3485,-1.38755 2.8235,-3.05386 3.4913,-5.21488 0.714,-2.28868 0.06,-5.37626 -2.0771,-7.51304 -3.6077,-3.11422 -8.44953,-6.2704 -12.72789,-9.72272 -2.30157,-1.23829 -4.62016,-1.68948 -6.62915,-1.01643 -2.00893,0.67299 -3.15657,2.03191 -4.0879,3.07142 -2.81334,3.14036 -5.1354,3.81404 -7.35833,3.60183 -2.2929,-0.26307 -4.69184,-1.63402 -6.67336,-3.71228 m -19.15817,-40.37137 8.77258,11.46835 c 0.67696,1.30954 0.6157,1.68895 0.57452,1.81197 -0.0434,0.12943 -0.40562,0.63862 -1.37006,1.50263 -4.18475,3.74898 -5.96394,8.27521 -5.56842,12.41853 0.39338,4.12166 2.6513,7.62976 5.43584,10.34147 2.58339,2.58339 4.56038,4.56038 7.07107,7.07107 2.71136,2.7849 6.21981,5.04246 10.34147,5.43584 4.14332,0.39552 8.66955,-1.38367 12.41853,-5.56843 0.86395,-0.96448 1.3732,-1.32667 1.50261,-1.37009 0.12307,-0.0412 0.50242,-0.10243 1.81195,0.57455 l 11.46841,8.77262 c 0.8186,0.83276 0.7057,0.85194 0.5303,1.4142 -0.1813,0.58134 -0.9769,1.69606 -2.0108,2.76214 -4.58166,4.59916 -12.16846,9.76348 -18.69413,8.04331 -6.00495,-1.03951 -12.89073,-5.687 -20.90388,-13.70017 -3.31408,-3.31407 -6.95794,-6.95793 -9.89949,-9.89949 -8.01316,-8.01315 -12.66066,-14.89893 -13.70016,-20.90388 -1.72018,-6.52567 3.44411,-14.11249 8.0433,-18.6941 1.06636,-1.03347 2.18081,-1.82947 2.76214,-2.01083 0.4677,-0.15371 0.86411,-0.13385 1.41422,0.53031 z"
         visibility="visible"
         display="inline"
         overflow="visible"
         id="path8"
         inkscape:connector-curvature="0" />
      <path
         style="color:#000000;text-indent:0;text-transform:none;direction:ltr;block-progression:tb;baseline-shift:baseline;display:inline;overflow:visible;visibility:visible;fill:#000000;fill-opacity:1;stroke:none;marker:none;enable-background:accumulate"
         d="m 970.84302,-250.48148 c 0.0818,1.5709 1.58581,2.9258 3.15677,2.8437 22.67921,0 40.99991,18.3208 40.99991,41 -0.022,1.5849 1.4149,3.0427 3,3.0427 1.5851,0 3.0225,-1.4578 3,-3.0427 0,-25.9219 -21.07806,-47 -46.99991,-47 -1.7261,0.015 -3.18131,1.5579 -3.15677,3.1563 z m 0,12 c 0.0818,1.5709 1.58581,2.9258 3.15677,2.8437 16.05178,0 28.99991,12.9482 28.99991,29 -0.022,1.5849 1.4149,3.0427 3,3.0427 1.5851,0 3.0225,-1.4578 3,-3.0427 0,-19.2945 -15.70549,-35 -34.99991,-35 -1.77211,-0.01 -3.18128,1.5914 -3.15677,3.1563 z"
         visibility="visible"
         display="inline"
         overflow="visible"
         id="path10"
         inkscape:connector-curvature="0" />
    </g>
  </g>
</svg>
