<?xml version="1.0" encoding="UTF-8" standalone="no"?>
<svg
   xmlns:dc="http://purl.org/dc/elements/1.1/"
   xmlns:cc="http://creativecommons.org/ns#"
   xmlns:rdf="http://www.w3.org/1999/02/22-rdf-syntax-ns#"
   xmlns:svg="http://www.w3.org/2000/svg"
   xmlns="http://www.w3.org/2000/svg"
   xmlns:sodipodi="http://sodipodi.sourceforge.net/DTD/sodipodi-0.dtd"
   xmlns:inkscape="http://www.inkscape.org/namespaces/inkscape"
   version="1.1"
   x="0px"
   y="0px"
   viewBox="0 0 87.525002 86.900002"
   xml:space="preserve"
   id="svg12"
   sodipodi:docname="search.svg"
   inkscape:version="0.92.2 (5c3e80d, 2017-08-06)"
   width="87.525002"
   height="86.900002"><metadata
     id="metadata18"><rdf:RDF><cc:Work
         rdf:about=""><dc:format>image/svg+xml</dc:format><dc:type
           rdf:resource="http://purl.org/dc/dcmitype/StillImage" /><dc:title></dc:title></cc:Work></rdf:RDF></metadata><defs
     id="defs16" /><sodipodi:namedview
     pagecolor="#ffffff"
     bordercolor="#666666"
     borderopacity="1"
     objecttolerance="10"
     gridtolerance="10"
     guidetolerance="10"
     inkscape:pageopacity="0"
     inkscape:pageshadow="2"
     inkscape:window-width="640"
     inkscape:window-height="480"
     id="namedview14"
     showgrid="false"
     inkscape:zoom="1.888"
     inkscape:cx="43.8"
     inkscape:cy="43.6"
     inkscape:window-x="0"
     inkscape:window-y="0"
     inkscape:window-maximized="0"
     inkscape:current-layer="svg12" /><g
     id="g6"
     transform="translate(-6.2,-7.2)"><path
       d="m 40.6,76.1 c 7.8,0 15.1,-2.6 20.9,-7.1 l 3.5,3.5 c -0.6,0.6 -0.9,1.3 -0.9,2.1 0,0.8 0.3,1.6 0.9,2.1 l 15,15.1 c 1.5,1.5 3.5,2.3 5.7,2.3 2.2,0 4.1,-0.8 5.7,-2.3 v 0 c 3.1,-3.1 3.1,-8.2 0,-11.3 L 76.2,65.4 C 75,64.2 73.1,64.2 72,65.4 v 0 L 68.4,61.8 C 72.5,56.1 75,49.1 75,41.6 75,22.6 59.6,7.2 40.6,7.2 21.6,7.2 6.2,22.6 6.2,41.6 c 0,19 15.4,34.5 34.4,34.5 z M 74.1,69 88.5,83.4 c 1.6,1.6 1.6,4.1 0,5.7 -1.5,1.5 -4.1,1.5 -5.7,0 L 68.5,74.6 71.3,71.8 Z M 69.2,68.2 68.5,69 67.8,69.7 64.5,66.4 C 65,65.9 65.4,65.5 65.9,65 Z M 40.6,11.2 C 57.4,11.2 71,24.9 71,41.6 71,58.3 57.4,72.1 40.6,72.1 23.8,72.1 10.2,58.4 10.2,41.6 10.2,24.8 23.8,11.2 40.6,11.2 Z"
       id="path2"
       inkscape:connector-curvature="0" /><path
       d="m 40.6,20 c 11.9,0 21.6,9.7 21.6,21.6 0,1.1 0.9,2 2,2 1.1,0 2,-0.9 2,-2 C 66.2,27.5 54.7,16 40.6,16 c -1.1,0 -2,0.9 -2,2 0,1.1 0.9,2 2,2 z"
       id="path4"
       inkscape:connector-curvature="0" /></g></svg>