<?xml version="1.0" encoding="UTF-8" standalone="no"?>
<svg
   xmlns:dc="http://purl.org/dc/elements/1.1/"
   xmlns:cc="http://creativecommons.org/ns#"
   xmlns:rdf="http://www.w3.org/1999/02/22-rdf-syntax-ns#"
   xmlns:svg="http://www.w3.org/2000/svg"
   xmlns="http://www.w3.org/2000/svg"
   xmlns:sodipodi="http://sodipodi.sourceforge.net/DTD/sodipodi-0.dtd"
   xmlns:inkscape="http://www.inkscape.org/namespaces/inkscape"
   version="1.1"
   viewBox="0 0 64.001465 63.999466"
   x="0px"
   y="0px"
   id="svg16"
   sodipodi:docname="setting2.svg"
   width="64.001465"
   height="63.999466"
   inkscape:version="0.92.2 (5c3e80d, 2017-08-06)">
  <metadata
     id="metadata22">
    <rdf:RDF>
      <cc:Work
         rdf:about="">
        <dc:format>image/svg+xml</dc:format>
        <dc:type
           rdf:resource="http://purl.org/dc/dcmitype/StillImage" />
        <dc:title>settings</dc:title>
      </cc:Work>
    </rdf:RDF>
  </metadata>
  <defs
     id="defs20" />
  <sodipodi:namedview
     pagecolor="#ffffff"
     bordercolor="#666666"
     borderopacity="1"
     objecttolerance="10"
     gridtolerance="10"
     guidetolerance="10"
     inkscape:pageopacity="0"
     inkscape:pageshadow="2"
     inkscape:window-width="640"
     inkscape:window-height="480"
     id="namedview18"
     showgrid="false"
     inkscape:zoom="2.95"
     inkscape:cx="32.001467"
     inkscape:cy="40.927346"
     inkscape:window-x="0"
     inkscape:window-y="0"
     inkscape:window-maximized="0"
     inkscape:current-layer="svg16" />
  <title
     id="title2">settings</title>
  <path
     d="m 41.106467,46.092 c -0.673,-0.404 -1.364,-0.811 -2.054,-1.209 0.162,-1.384 0.163,-2.784 10e-4,-4.165 0.693,-0.4 1.383,-0.806 2.053,-1.209 1.127,-0.678 1.597,-2.107 1.093,-3.325 0,0 0,0 0,0 l -1.471,-3.552 c -0.505,-1.218 -1.847,-1.897 -3.124,-1.579 -0.759,0.189 -1.534,0.39 -2.307,0.597 -0.863,-1.091 -1.852,-2.081 -2.945,-2.944 0.207,-0.773 0.408,-1.549 0.597,-2.308 0.318,-1.276 -0.361,-2.619 -1.579,-3.124 l -3.552,-1.471 c -1.218,-0.505 -2.648,-0.035 -3.326,1.093 -0.404,0.672 -0.81,1.362 -1.209,2.054 -1.383,-0.162 -2.783,-0.163 -4.165,-10e-4 -0.4,-0.694 -0.807,-1.384 -1.209,-2.053 -0.678,-1.128 -2.107,-1.597 -3.326,-1.093 l -3.552,1.471 c -1.2180002,0.505 -1.8970002,1.848 -1.5790002,3.124 0.189,0.761 0.39,1.536 0.5970002,2.307 -1.0910002,0.862 -2.0810002,1.852 -2.9440002,2.945 -0.774,-0.208 -1.55,-0.409 -2.308,-0.597 -1.277,-0.318 -2.619,0.361 -3.124,1.579 l -1.47099997,3.552 c -0.504,1.218 -0.035,2.648 1.09299997,3.325 0.672,0.404 1.363,0.81 2.054,1.209 -0.162,1.383 -0.163,2.783 -10e-4,4.164 -0.692,0.399 -1.383,0.806 -2.054,1.209 -1.12699997,0.678 -1.59699997,2.107 -1.09299997,3.325 l 1.47199997,3.552 c 0.504,1.218 1.847,1.897 3.124,1.579 0.758,-0.189 1.534,-0.389 2.307,-0.597 0.863,1.091 1.853,2.081 2.9450002,2.944 -0.2070002,0.774 -0.4080002,1.549 -0.5970002,2.308 -0.318,1.276 0.361,2.62 1.5790002,3.124 l 3.552,1.471 c 0.33,0.137 0.675,0.202 1.017,0.202 0.92,0 1.814,-0.472 2.309,-1.294 0.401,-0.667 0.807,-1.357 1.209,-2.054 1.383,0.162 2.783,0.162 4.165,10e-4 0.397,0.689 0.804,1.379 1.209,2.053 0.678,1.127 2.107,1.597 3.326,1.093 l 3.552,-1.471 c 1.218,-0.505 1.897,-1.848 1.579,-3.124 -0.188,-0.754 -0.389,-1.53 -0.597,-2.307 1.091,-0.862 2.081,-1.852 2.944,-2.945 0.772,0.207 1.548,0.408 2.307,0.597 1.276,0.318 2.62,-0.361 3.124,-1.579 l 1.471,-3.552 c 0.504,-1.218 0.034,-2.648 -1.093,-3.325 z m -2.966,5.637 c -0.73,-0.183 -1.473,-0.376 -2.213,-0.575 -1.047,-0.282 -2.152,0.087 -2.815,0.938 -0.762,0.979 -1.644,1.861 -2.621,2.622 -0.851,0.663 -1.218,1.767 -0.937,2.814 0.2,0.744 0.393,1.487 0.575,2.212 l -3.265,1.352 c -0.388,-0.648 -0.777,-1.31 -1.157,-1.971 -0.541,-0.939 -1.582,-1.46 -2.652,-1.327 -1.229,0.153 -2.476,0.153 -3.707,-10e-4 -1.073,-0.133 -2.113,0.387 -2.654,1.327 -0.385,0.668 -0.774,1.331 -1.158,1.972 l -3.265,-1.352 c 0.183,-0.728 0.376,-1.472 0.575,-2.213 0.282,-1.047 -0.086,-2.152 -0.938,-2.815 -0.979,-0.762 -1.861,-1.644 -2.6220002,-2.621 -0.662,-0.851 -1.767,-1.219 -2.814,-0.937 -0.74,0.199 -1.484,0.393 -2.212,0.575 l -1.353,-3.265 c 0.645,-0.387 1.307,-0.776 1.971,-1.157 0.939,-0.541 1.46,-1.582 1.327,-2.652 -0.153,-1.229 -0.152,-2.476 0,-3.707 0.133,-1.071 -0.387,-2.113 -1.327,-2.654 -0.663,-0.382 -1.325,-0.771 -1.971,-1.158 l 1.353,-3.265 c 0.728,0.182 1.471,0.376 2.213,0.575 1.046,0.282 2.152,-0.087 2.815,-0.938 0.7620002,-0.979 1.6440002,-1.861 2.6210002,-2.622 0.851,-0.663 1.219,-1.767 0.937,-2.814 -0.199,-0.738 -0.392,-1.481 -0.575,-2.212 l 3.265,-1.352 c 0.386,0.643 0.774,1.305 1.157,1.971 0.541,0.939 1.583,1.461 2.652,1.327 1.228,-0.153 2.476,-0.153 3.707,10e-4 1.072,0.134 2.113,-0.388 2.654,-1.327 0.382,-0.663 0.771,-1.326 1.158,-1.971 l 3.265,1.352 c -0.183,0.729 -0.376,1.473 -0.575,2.213 -0.282,1.047 0.087,2.152 0.938,2.815 0.979,0.762 1.861,1.644 2.622,2.621 0.663,0.851 1.767,1.218 2.814,0.937 0.74,-0.199 1.483,-0.392 2.212,-0.575 l 1.352,3.265 c -0.644,0.386 -1.306,0.775 -1.971,1.157 -0.939,0.541 -1.461,1.582 -1.327,2.652 0.153,1.228 0.153,2.476 -0.001,3.707 -0.133,1.071 0.388,2.113 1.327,2.654 0.662,0.381 1.325,0.77 1.971,1.158 l -1.352,3.266 z"
     id="path4"
     inkscape:connector-curvature="0" />
  <path
     d="m 30.221467,39.064 c 0,0 0,0 0,0 -2.06,-4.974 -7.782,-7.344 -12.756,-5.284 -4.974,2.06 -7.344,7.783 -5.284,12.756 0.998,2.41 2.875,4.286 5.284,5.284 1.205,0.499 2.47,0.748 3.736,0.748 1.266,0 2.532,-0.249 3.736,-0.748 4.973,-2.06 7.344,-7.783 5.284,-12.756 z m -6.38,10.109 c -1.702,0.705 -3.577,0.705 -5.28,0 -1.703,-0.705 -3.028,-2.031 -3.733,-3.733 -1.456,-3.514 0.219,-7.558 3.734,-9.013 0.861,-0.356 1.753,-0.525 2.631,-0.525 2.708,0 5.283,1.605 6.383,4.259 1.456,3.514 -0.219,7.558 -3.734,9.013 z"
     id="path6"
     inkscape:connector-curvature="0" />
  <path
     d="m 62.070467,12.617 c -0.495,-0.074 -1.002,-0.146 -1.514,-0.214 -0.258,-0.857 -0.602,-1.688 -1.027,-2.477 0.313,-0.409 0.621,-0.819 0.92,-1.222 0.662,-0.895 0.566,-2.165 -0.222,-2.953 l -1.976,-1.976 c -0.789,-0.789 -2.058,-0.884 -2.953,-0.222 -0.404,0.299 -0.814,0.607 -1.222,0.919 -0.789,-0.425 -1.62,-0.769 -2.477,-1.027 -0.068,-0.511 -0.14,-1.019 -0.214,-1.514 -0.165,-1.101 -1.13,-1.931 -2.245,-1.931 h -2.794 c -1.115,0 -2.081,0.83 -2.245,1.931 -0.074,0.494 -0.146,1.002 -0.214,1.514 -0.857,0.258 -1.688,0.602 -2.477,1.027 -0.408,-0.312 -0.818,-0.62 -1.222,-0.919 -0.895,-0.662 -2.165,-0.567 -2.953,0.222 l -1.976,1.976 c -0.789,0.788 -0.885,2.058 -0.222,2.953 0.298,0.403 0.606,0.813 0.919,1.222 -0.425,0.789 -0.769,1.62 -1.027,2.477 -0.511,0.068 -1.019,0.14 -1.514,0.214 -1.101,0.165 -1.931,1.13 -1.931,2.245 v 2.794 c 0,1.115 0.83,2.081 1.931,2.245 0.495,0.074 1.002,0.146 1.514,0.214 0.258,0.857 0.602,1.688 1.027,2.477 -0.313,0.409 -0.621,0.819 -0.92,1.222 -0.662,0.895 -0.566,2.165 0.222,2.953 l 1.976,1.976 c 0.788,0.789 2.058,0.884 2.953,0.222 0.404,-0.299 0.814,-0.608 1.222,-0.919 0.789,0.425 1.62,0.769 2.477,1.027 0.068,0.511 0.14,1.019 0.214,1.514 0.165,1.101 1.13,1.931 2.245,1.931 h 2.794 c 1.115,0 2.081,-0.83 2.245,-1.931 0.074,-0.494 0.146,-1.002 0.214,-1.514 0.857,-0.258 1.688,-0.602 2.477,-1.027 0.408,0.312 0.818,0.62 1.222,0.919 0.895,0.662 2.165,0.567 2.953,-0.222 l 1.976,-1.976 c 0.789,-0.788 0.884,-2.058 0.222,-2.953 -0.298,-0.403 -0.607,-0.814 -0.919,-1.222 0.425,-0.789 0.769,-1.62 1.027,-2.477 0.511,-0.068 1.019,-0.14 1.514,-0.214 1.101,-0.165 1.931,-1.13 1.931,-2.245 v -2.794 c 0,-1.115 -0.83,-2.081 -1.931,-2.245 z m -0.79,4.651 c -0.449,0.065 -0.907,0.128 -1.367,0.188 -0.909,0.119 -1.653,0.764 -1.896,1.644 -0.232,0.842 -0.569,1.655 -1.001,2.416 -0.451,0.794 -0.382,1.777 0.177,2.504 0.282,0.366 0.562,0.735 0.834,1.1 l -1.425,1.426 c -0.366,-0.273 -0.734,-0.552 -1.1,-0.834 -0.727,-0.559 -1.71,-0.628 -2.504,-0.178 -0.761,0.432 -1.574,0.769 -2.416,1.001 -0.88,0.242 -1.526,0.987 -1.644,1.896 -0.06,0.46 -0.123,0.918 -0.188,1.367 h -2.016 c -0.065,-0.449 -0.128,-0.907 -0.188,-1.366 -0.119,-0.909 -0.764,-1.654 -1.644,-1.896 -0.842,-0.232 -1.655,-0.569 -2.416,-1.001 -0.794,-0.451 -1.777,-0.382 -2.504,0.177 -0.366,0.281 -0.734,0.561 -1.1,0.834 l -1.425,-1.426 c 0.272,-0.365 0.552,-0.733 0.834,-1.1 0.559,-0.727 0.628,-1.71 0.177,-2.504 -0.432,-0.761 -0.769,-1.574 -1.001,-2.416 -0.242,-0.88 -0.986,-1.525 -1.896,-1.644 -0.46,-0.06 -0.918,-0.123 -1.367,-0.188 v -2.016 c 0.449,-0.065 0.907,-0.128 1.367,-0.188 0.909,-0.119 1.653,-0.764 1.896,-1.644 0.232,-0.842 0.569,-1.655 1.001,-2.416 0.451,-0.794 0.382,-1.777 -0.177,-2.504 -0.282,-0.367 -0.562,-0.736 -0.834,-1.1 l 1.425,-1.426 c 0.366,0.273 0.734,0.552 1.1,0.833 0.727,0.559 1.709,0.629 2.504,0.178 0.761,-0.432 1.574,-0.769 2.416,-1.001 0.88,-0.242 1.526,-0.987 1.644,-1.896 0.06,-0.46 0.123,-0.918 0.188,-1.367 h 2.016 c 0.065,0.449 0.128,0.907 0.188,1.366 0.119,0.909 0.764,1.654 1.644,1.896 0.842,0.232 1.655,0.569 2.416,1.001 0.794,0.451 1.777,0.381 2.504,-0.178 0.366,-0.281 0.734,-0.561 1.1,-0.834 l 1.425,1.426 c -0.272,0.364 -0.551,0.733 -0.834,1.1 -0.559,0.727 -0.628,1.71 -0.177,2.504 0.432,0.761 0.769,1.574 1.001,2.416 0.242,0.88 0.986,1.525 1.896,1.644 0.46,0.06 0.918,0.123 1.367,0.188 v 2.016 z"
     id="path8"
     inkscape:connector-curvature="0" />
  <path
     d="m 47.741467,10.459 c -3.198,0 -5.8,2.602 -5.8,5.8 0,3.198 2.602,5.8 5.8,5.8 3.198,0 5.8,-2.602 5.8,-5.8 0,-3.198 -2.602,-5.8 -5.8,-5.8 z m 0,9.022 c -1.776,0 -3.222,-1.445 -3.222,-3.222 0,-1.777 1.445,-3.222 3.222,-3.222 1.776,0 3.222,1.445 3.222,3.222 0,1.777 -1.445,3.222 -3.222,3.222 z"
     id="path10"
     inkscape:connector-curvature="0" />
</svg>
