<?xml version="1.0" encoding="UTF-8" standalone="no"?>
<svg
   xmlns:dc="http://purl.org/dc/elements/1.1/"
   xmlns:cc="http://creativecommons.org/ns#"
   xmlns:rdf="http://www.w3.org/1999/02/22-rdf-syntax-ns#"
   xmlns:svg="http://www.w3.org/2000/svg"
   xmlns="http://www.w3.org/2000/svg"
   xmlns:sodipodi="http://sodipodi.sourceforge.net/DTD/sodipodi-0.dtd"
   xmlns:inkscape="http://www.inkscape.org/namespaces/inkscape"
   version="1.1"
   x="0px"
   y="0px"
   viewBox="0 0 70.211868 88.099998"
   xml:space="preserve"
   id="svg16"
   sodipodi:docname="setting.svg"
   width="70.211868"
   height="88.099998"
   inkscape:version="0.92.2 (5c3e80d, 2017-08-06)"><metadata
     id="metadata22"><rdf:RDF><cc:Work
         rdf:about=""><dc:format>image/svg+xml</dc:format><dc:type
           rdf:resource="http://purl.org/dc/dcmitype/StillImage" /></cc:Work></rdf:RDF></metadata><defs
     id="defs20" /><sodipodi:namedview
     pagecolor="#ffffff"
     bordercolor="#666666"
     borderopacity="1"
     objecttolerance="10"
     gridtolerance="10"
     guidetolerance="10"
     inkscape:pageopacity="0"
     inkscape:pageshadow="2"
     inkscape:window-width="640"
     inkscape:window-height="480"
     id="namedview18"
     showgrid="false"
     inkscape:zoom="1.888"
     inkscape:cx="36.41187"
     inkscape:cy="32.5"
     inkscape:window-x="0"
     inkscape:window-y="0"
     inkscape:window-maximized="0"
     inkscape:current-layer="svg16" /><g
     id="g10"
     transform="translate(-13.58813,-6.9)"><path
       d="m 20.6,85.7 c 0.4,0 0.8,-0.1 1.2,-0.3 l 3.7,-1.7 c 2.3,2 5,3.6 8,4.6 l 0.4,4 c 0.1,1.5 1.4,2.7 2.9,2.7 h 8 c 1.5,0 2.8,-1.2 2.9,-2.7 l 0.4,-4 c 3,-1 5.7,-2.6 8,-4.6 l 3.7,1.7 c 0.4,0.2 0.8,0.3 1.2,0.3 1,0 2,-0.5 2.5,-1.5 l 4,-7 c 0.8,-1.3 0.4,-3 -0.9,-3.9 L 63.3,71 c 0.3,-1.5 0.5,-3 0.5,-4.6 0,-1.6 -0.2,-3.1 -0.5,-4.6 l 3.3,-2.3 c 1.2,-0.9 1.6,-2.6 0.9,-3.9 l -4,-7 C 63,47.7 62,47.1 61,47.1 c -0.4,0 -0.8,0.1 -1.2,0.3 L 56,49.2 c -2.3,-2 -5,-3.6 -8,-4.6 l -0.4,-4 c -0.1,-1.5 -1.4,-2.7 -2.9,-2.7 h -8 c -1.5,0 -2.8,1.2 -2.9,2.7 l -0.4,4 c -3,1 -5.7,2.6 -8,4.6 l -3.7,-1.7 c -0.4,-0.2 -0.8,-0.3 -1.2,-0.3 -1,0 -2,0.5 -2.5,1.5 l -4,7 c -0.8,1.3 -0.4,3 0.9,3.9 l 3.3,2.3 c -0.3,1.5 -0.5,3 -0.5,4.6 0,1.6 0.2,3.1 0.5,4.6 l -3.3,2.3 C 13.7,74.3 13.3,76 14,77.3 l 4,7 c 0.6,0.8 1.6,1.4 2.6,1.4 z m -5.2,-11.5 3.3,-2.3 0.5,-0.4 -0.1,-0.6 c -0.3,-1.4 -0.4,-2.9 -0.4,-4.4 0,-1.5 0.1,-3 0.4,-4.4 L 19.2,61.5 18.7,61 15.4,58.7 C 14.6,58.1 14.3,57 14.8,56.1 l 4,-7 c 0.3,-0.6 1,-1 1.7,-1 0.3,0 0.6,0.1 0.8,0.2 l 3.7,1.7 0.6,0.3 0.5,-0.4 c 2.2,-2 4.8,-3.5 7.6,-4.4 l 0.6,-0.2 0.1,-0.7 0.4,-4 c 0.1,-1 0.9,-1.8 1.9,-1.8 h 8 c 1,0 1.8,0.8 1.9,1.8 l 0.4,4 0.1,0.7 0.6,0.2 c 2.8,0.9 5.4,2.4 7.6,4.4 l 0.5,0.4 0.6,-0.3 3.7,-1.7 c 0.3,-0.1 0.5,-0.2 0.8,-0.2 0.7,0 1.3,0.4 1.7,1 l 4,7 c 0.5,0.9 0.3,2 -0.6,2.6 l -3.3,2.3 -0.5,0.4 0.1,0.6 c 0.3,1.4 0.4,2.9 0.4,4.4 0,1.5 -0.1,3 -0.4,4.4 l -0.1,0.6 0.5,0.4 3.3,2.3 c 0.8,0.6 1.1,1.7 0.6,2.6 l -4,7 c -0.3,0.6 -1,1 -1.7,1 -0.3,0 -0.6,-0.1 -0.8,-0.2 l -3.7,-1.7 -0.6,-0.3 -0.5,0.4 c -2.2,2 -4.8,3.5 -7.6,4.4 l -0.6,0.2 -0.1,0.7 -0.4,4 c -0.1,1 -0.9,1.8 -1.9,1.8 h -8 c -1,0 -1.8,-0.8 -1.9,-1.8 l -0.4,-4 -0.1,-0.7 -0.6,-0.2 c -2.8,-0.9 -5.4,-2.4 -7.6,-4.4 l -0.5,-0.4 -0.6,0.3 -3.7,1.7 c -0.3,0.1 -0.5,0.2 -0.8,0.2 -0.7,0 -1.3,-0.4 -1.7,-1 l -4,-7 c -0.4,-0.8 -0.2,-1.9 0.6,-2.5 z"
       id="path2"
       inkscape:connector-curvature="0" /><path
       d="m 40.7,79.1 c 7,0 12.7,-5.7 12.7,-12.7 0,-7 -5.7,-12.7 -12.7,-12.7 -7,0 -12.7,5.7 -12.7,12.7 0,7.1 5.7,12.7 12.7,12.7 z m 0,-24.3 c 6.4,0 11.7,5.2 11.7,11.7 0,6.5 -5.2,11.7 -11.7,11.7 C 34.2,78.2 29,72.9 29,66.5 29,60.1 34.3,54.8 40.7,54.8 Z"
       id="path4"
       inkscape:connector-curvature="0" /><path
       d="m 81.8,20.3 -2.7,-0.2 c -0.3,-1 -0.8,-1.9 -1.3,-2.8 -0.6,-0.9 -1.2,-1.8 -1.9,-2.5 L 77,12.3 c 0.4,-0.9 0,-2.1 -0.9,-2.6 L 71.3,7.1 C 71,6.9 70.7,6.9 70.3,6.9 69.7,6.9 69,7.2 68.6,7.8 L 67.2,10 C 66.3,9.8 65.3,9.7 64.4,9.7 63.3,9.7 62.1,9.8 61,10.1 L 59.4,7.9 C 59,7.4 58.4,7.1 57.8,7.1 c -0.4,0 -0.7,0.1 -1,0.3 L 52,10.2 c -0.9,0.5 -1.2,1.7 -0.8,2.6 l 1.2,2.5 c -1.4,1.6 -2.4,3.5 -3,5.5 L 46.7,21 c -1,0.1 -1.8,1 -1.8,2 l 0.1,5.5 c 0,1 0.8,1.9 1.9,2 l 2.7,0.2 c 0.3,1 0.8,1.9 1.3,2.8 0.5,0.9 1.2,1.8 1.9,2.5 l -1.1,2.5 c -0.4,0.9 0,2.1 0.9,2.6 l 4.8,2.6 c 0.3,0.2 0.6,0.2 1,0.2 0.6,0 1.3,-0.3 1.7,-0.9 l 1.5,-2.3 c 0.9,0.2 1.9,0.3 2.8,0.3 1.1,0 2.3,-0.1 3.4,-0.4 l 1.6,2.2 c 0.4,0.5 1,0.8 1.6,0.8 0.4,0 0.7,-0.1 1,-0.3 l 4.7,-2.8 c 0.9,-0.5 1.2,-1.7 0.8,-2.6 l -1.2,-2.5 c 1.4,-1.6 2.4,-3.5 3,-5.5 L 82,29.6 c 1,-0.1 1.8,-1 1.8,-2 l -0.1,-5.5 c -0.1,-0.9 -0.9,-1.7 -1.9,-1.8 z m 0.1,8.5 -2.7,0.3 -0.6,0.1 -0.2,0.6 c -0.6,1.9 -1.5,3.6 -2.8,5.1 l -0.4,0.5 0.3,0.6 1.2,2.5 c 0.2,0.5 0.1,1 -0.4,1.3 l -4.7,2.8 c -0.2,0.1 -0.3,0.1 -0.5,0.1 -0.3,0 -0.6,-0.2 -0.8,-0.4 l -1.6,-2.2 -0.4,-0.5 -0.6,0.1 c -1,0.2 -2.1,0.4 -3.2,0.4 -0.9,0 -1.8,-0.1 -2.7,-0.2 l -0.8,-0.2 -0.4,0.5 -1.5,2.3 c -0.2,0.3 -0.5,0.4 -0.8,0.4 -0.2,0 -0.3,0 -0.5,-0.1 L 53,40.2 c -0.5,-0.3 -0.6,-0.8 -0.4,-1.3 l 1.1,-2.5 0.3,-0.6 -0.4,-0.5 c -0.7,-0.7 -1.3,-1.5 -1.8,-2.4 -0.5,-0.8 -0.9,-1.7 -1.3,-2.7 l -0.2,-0.6 h -0.7 l -2.7,-0.2 c -0.5,0 -0.9,-0.5 -0.9,-1 L 45.9,23 c 0,-0.5 0.4,-1 0.9,-1 l 2.7,-0.3 0.7,-0.1 0.2,-0.6 c 0.6,-1.9 1.5,-3.6 2.8,-5.1 l 0.4,-0.5 -0.3,-0.6 -1.2,-2.5 C 51.9,11.8 52,11.3 52.5,11 l 4.7,-2.8 c 0.2,-0.1 0.3,-0.1 0.5,-0.1 0.3,0 0.6,0.2 0.8,0.4 l 1.6,2.2 0.4,0.5 0.6,-0.1 c 1,-0.2 2.1,-0.4 3.2,-0.4 0.9,0 1.8,0.1 2.7,0.2 L 67.6,11 68,10.5 69.5,8.2 C 69.7,8 70,7.8 70.3,7.8 c 0.2,0 0.3,0 0.5,0.1 l 4.8,2.6 c 0.5,0.3 0.6,0.8 0.4,1.3 l -1.1,2.5 -0.2,0.7 0.4,0.5 c 0.7,0.7 1.3,1.5 1.8,2.4 0.5,0.8 0.9,1.7 1.3,2.7 l 0.2,0.6 h 0.7 l 2.7,0.2 c 0.5,0 0.9,0.5 0.9,1 l 0.1,5.5 c 0,0.4 -0.4,0.8 -0.9,0.9 z"
       id="path6"
       inkscape:connector-curvature="0" /><path
       d="m 64.3,16.8 c -1.5,0 -3.1,0.4 -4.4,1.2 -4.1,2.5 -5.4,7.8 -2.9,11.8 1.6,2.7 4.5,4.2 7.4,4.2 1.5,0 3.1,-0.4 4.4,-1.2 4.1,-2.5 5.4,-7.8 2.9,-11.8 -1.6,-2.8 -4.5,-4.2 -7.4,-4.2 z m 4,15.1 c -1.2,0.7 -2.5,1.1 -3.9,1.1 -2.7,0 -5.1,-1.4 -6.5,-3.7 -1.1,-1.7 -1.4,-3.8 -0.9,-5.8 0.5,-2 1.7,-3.6 3.5,-4.7 1.2,-0.7 2.5,-1.1 3.9,-1.1 2.7,0 5.1,1.4 6.5,3.7 2.1,3.6 1,8.3 -2.6,10.5 z"
       id="path8"
       inkscape:connector-curvature="0" /></g></svg>